<svg id="Layer_1" data-name="Layer 1" xmlns="http://www.w3.org/2000/svg" xmlns:xlink="http://www.w3.org/1999/xlink" viewBox="0 0 638 395.55"><defs><style>.cls-1{mask:url(#mask);}.cls-10,.cls-12,.cls-14,.cls-16,.cls-18,.cls-2,.cls-20,.cls-22,.cls-24,.cls-26,.cls-27,.cls-29,.cls-4,.cls-6,.cls-8{mix-blend-mode:multiply;}.cls-2{fill:url(#linear-gradient);}.cls-3{mask:url(#mask-2);}.cls-4{fill:url(#linear-gradient-2);}.cls-5{mask:url(#mask-3);}.cls-6{fill:url(#linear-gradient-3);}.cls-7{mask:url(#mask-4);}.cls-8{fill:url(#linear-gradient-4);}.cls-9{mask:url(#mask-5);}.cls-10{fill:url(#linear-gradient-5);}.cls-11{mask:url(#mask-6);}.cls-12{fill:url(#linear-gradient-6);}.cls-13{mask:url(#mask-7);}.cls-14{fill:url(#linear-gradient-7);}.cls-15{mask:url(#mask-8);}.cls-16{fill:url(#linear-gradient-8);}.cls-17{mask:url(#mask-10);}.cls-18{fill:url(#linear-gradient-10);}.cls-19{mask:url(#mask-11);}.cls-20{fill:url(#linear-gradient-11);}.cls-21{mask:url(#mask-12);}.cls-22{fill:url(#linear-gradient-12);}.cls-23{mask:url(#mask-13);}.cls-24{fill:url(#radial-gradient);}.cls-25{mask:url(#mask-14);}.cls-26{fill:url(#linear-gradient-13);}.cls-27{fill:url(#linear-gradient-14);}.cls-28{mask:url(#mask-16);}.cls-29{fill:url(#linear-gradient-15);}.cls-30{opacity:0.7;fill:url(#linear-gradient-16);}.cls-30,.cls-67,.cls-71,.cls-74,.cls-76,.cls-79,.cls-81,.cls-83{isolation:isolate;}.cls-31{fill:url(#linear-gradient-17);}.cls-32{fill:url(#linear-gradient-18);}.cls-33{fill:url(#linear-gradient-19);}.cls-34{fill:url(#linear-gradient-20);}.cls-35{fill:url(#linear-gradient-21);}.cls-36{fill:url(#linear-gradient-22);}.cls-37{fill:url(#linear-gradient-23);}.cls-38{fill:url(#linear-gradient-24);}.cls-39{fill:url(#linear-gradient-25);}.cls-40{fill:url(#linear-gradient-26);}.cls-41{fill:url(#linear-gradient-27);}.cls-42{fill:url(#linear-gradient-28);}.cls-43{fill:url(#linear-gradient-29);}.cls-44,.cls-67,.cls-74,.cls-79{opacity:0.5;}.cls-45{fill:#090909;}.cls-46{fill:url(#linear-gradient-30);}.cls-47{mask:url(#mask-17);}.cls-48{fill:url(#linear-gradient-31);}.cls-49{mask:url(#mask-18);}.cls-50{fill:url(#linear-gradient-32);}.cls-51{fill:url(#linear-gradient-33);}.cls-52{mask:url(#mask-19);}.cls-53{fill:url(#linear-gradient-35);}.cls-54{mask:url(#mask-20);}.cls-55{fill:url(#linear-gradient-36);}.cls-56{mask:url(#mask-21);}.cls-57{fill:url(#linear-gradient-37);}.cls-58{opacity:0.8;}.cls-59{mask:url(#mask-22);}.cls-60{fill:url(#linear-gradient-38);}.cls-61{mask:url(#mask-23);}.cls-62{fill:url(#linear-gradient-39);}.cls-63{fill:#505050;}.cls-64{fill:url(#linear-gradient-40);}.cls-65{fill:url(#linear-gradient-41);}.cls-66{mask:url(#mask-24);}.cls-67{fill:url(#linear-gradient-42);}.cls-68{mask:url(#mask-25);}.cls-69{fill:url(#linear-gradient-43);}.cls-70{mask:url(#mask-26);}.cls-71,.cls-76,.cls-81{opacity:0.3;}.cls-71{fill:url(#linear-gradient-44);}.cls-72{fill:url(#linear-gradient-45);}.cls-73{mask:url(#mask-27);}.cls-74{fill:url(#linear-gradient-46);}.cls-75{mask:url(#mask-29);}.cls-76{fill:url(#linear-gradient-48);}.cls-77{fill:url(#linear-gradient-49);}.cls-78{mask:url(#mask-30);}.cls-79{fill:url(#linear-gradient-50);}.cls-80{mask:url(#mask-31);}.cls-81{fill:url(#linear-gradient-51);}.cls-82{mask:url(#mask-32);}.cls-83{opacity:0.6;fill:url(#radial-gradient-2);}.cls-84{filter:url(#luminosity-noclip-32);}.cls-85{filter:url(#luminosity-noclip-31);}.cls-86{filter:url(#luminosity-noclip-30);}.cls-87{filter:url(#luminosity-noclip-29);}.cls-88{filter:url(#luminosity-noclip-27);}.cls-89{filter:url(#luminosity-noclip-26);}.cls-90{filter:url(#luminosity-noclip-25);}.cls-91{filter:url(#luminosity-noclip-24);}.cls-92{filter:url(#luminosity-noclip-23);}.cls-93{filter:url(#luminosity-noclip-22);}.cls-94{filter:url(#luminosity-noclip-21);}.cls-95{filter:url(#luminosity-noclip-20);}.cls-96{filter:url(#luminosity-noclip-19);}.cls-97{filter:url(#luminosity-noclip-18);}.cls-98{filter:url(#luminosity-noclip-17);}.cls-99{filter:url(#luminosity-noclip-16);}.cls-100{filter:url(#luminosity-noclip-14);}.cls-101{filter:url(#luminosity-noclip-13);}.cls-102{filter:url(#luminosity-noclip-12);}.cls-103{filter:url(#luminosity-noclip-11);}.cls-104{filter:url(#luminosity-noclip-10);}.cls-105{filter:url(#luminosity-noclip-8);}.cls-106{filter:url(#luminosity-noclip-7);}.cls-107{filter:url(#luminosity-noclip-6);}.cls-108{filter:url(#luminosity-noclip-5);}.cls-109{filter:url(#luminosity-noclip-4);}.cls-110{filter:url(#luminosity-noclip-3);}.cls-111{filter:url(#luminosity-noclip-2);}.cls-112{filter:url(#luminosity-noclip);}</style><filter id="luminosity-noclip" x="338.64" y="-8692" width="285.98" height="32766" filterUnits="userSpaceOnUse" color-interpolation-filters="sRGB"><feFlood flood-color="#fff" result="bg"/><feBlend in="SourceGraphic" in2="bg"/></filter><mask id="mask" x="338.64" y="-8692" width="285.98" height="32766" maskUnits="userSpaceOnUse"><g class="cls-112"/></mask><linearGradient id="linear-gradient" x1="229.17" y1="44.56" x2="756.22" y2="48.51" gradientTransform="matrix(0.65, 0, 0, -0.65, 175.57, 550.65)" gradientUnits="userSpaceOnUse"><stop offset="0" stop-color="#fff"/><stop offset="0.22" stop-color="#dfdfdf"/><stop offset="0.52" stop-color="#fff"/><stop offset="0.75" stop-color="#fff"/><stop offset="1" stop-color="#fff"/></linearGradient><filter id="luminosity-noclip-2" x="470.57" y="-8692" width="47.88" height="32766" filterUnits="userSpaceOnUse" color-interpolation-filters="sRGB"><feFlood flood-color="#fff" result="bg"/><feBlend in="SourceGraphic" in2="bg"/></filter><mask id="mask-2" x="470.57" y="-8692" width="47.88" height="32766" maskUnits="userSpaceOnUse"><g class="cls-111"/></mask><linearGradient id="linear-gradient-2" x1="-126.95" y1="279.33" x2="-147.23" y2="326.16" gradientTransform="matrix(0.61, 0, 0, -0.62, 580.54, 512.56)" gradientUnits="userSpaceOnUse"><stop offset="0"/><stop offset="0.16" stop-color="#4d4d4d"/><stop offset="0.34" stop-color="#dfdfdf"/><stop offset="0.41" stop-color="#bfbfbf"/><stop offset="0.66"/><stop offset="1"/></linearGradient><filter id="luminosity-noclip-3" x="397.77" y="-8692" width="193.84" height="32766" filterUnits="userSpaceOnUse" color-interpolation-filters="sRGB"><feFlood flood-color="#fff" result="bg"/><feBlend in="SourceGraphic" in2="bg"/></filter><mask id="mask-3" x="397.77" y="-8692" width="193.84" height="32766" maskUnits="userSpaceOnUse"><g class="cls-110"/></mask><linearGradient id="linear-gradient-3" x1="-145.42" y1="63.5" x2="-171.46" y2="144.66" gradientTransform="matrix(0.61, 0, 0, -0.62, 576.24, 517.63)" gradientUnits="userSpaceOnUse"><stop offset="0"/><stop offset="0.12" stop-color="#5e5e5e"/><stop offset="0.29" stop-color="#dfdfdf"/><stop offset="0.38" stop-color="#bfbfbf"/><stop offset="0.52" stop-color="#7f7f7f"/><stop offset="1"/></linearGradient><filter id="luminosity-noclip-4" x="465.98" y="-8692" width="182.16" height="32766" filterUnits="userSpaceOnUse" color-interpolation-filters="sRGB"><feFlood flood-color="#fff" result="bg"/><feBlend in="SourceGraphic" in2="bg"/></filter><mask id="mask-4" x="465.98" y="-8692" width="182.16" height="32766" maskUnits="userSpaceOnUse"><g class="cls-109"/></mask><linearGradient id="linear-gradient-4" x1="936.97" y1="118.56" x2="936.97" y2="75.98" gradientTransform="matrix(0.65, 0, 0, -0.65, -52.34, 544.12)" gradientUnits="userSpaceOnUse"><stop offset="0" stop-color="#fff"/><stop offset="1"/></linearGradient><filter id="luminosity-noclip-5" x="316.14" y="-8692" width="343.56" height="32766" filterUnits="userSpaceOnUse" color-interpolation-filters="sRGB"><feFlood flood-color="#fff" result="bg"/><feBlend in="SourceGraphic" in2="bg"/></filter><mask id="mask-5" x="316.14" y="-8692" width="343.56" height="32766" maskUnits="userSpaceOnUse"><g class="cls-108"/></mask><linearGradient id="linear-gradient-5" x1="648.43" y1="412" x2="760.95" y2="232.37" gradientTransform="matrix(0.65, 0, 0, -0.65, -52.63, 544.16)" xlink:href="#linear-gradient-4"/><filter id="luminosity-noclip-6" x="317.08" y="-8692" width="337.67" height="32766" filterUnits="userSpaceOnUse" color-interpolation-filters="sRGB"><feFlood flood-color="#fff" result="bg"/><feBlend in="SourceGraphic" in2="bg"/></filter><mask id="mask-6" x="317.08" y="-8692" width="337.67" height="32766" maskUnits="userSpaceOnUse"><g class="cls-107"/></mask><linearGradient id="linear-gradient-6" x1="613.67" y1="56.63" x2="475.7" y2="9.31" gradientTransform="matrix(0.65, 0, 0, -0.65, 202.58, 434.07)" gradientUnits="userSpaceOnUse"><stop offset="0" stop-color="#fff"/><stop offset="0.25" stop-color="#e6e6e6"/><stop offset="0.5" stop-color="#7f7f7f"/><stop offset="1"/></linearGradient><filter id="luminosity-noclip-7" x="325.64" y="-8692" width="358.25" height="32766" filterUnits="userSpaceOnUse" color-interpolation-filters="sRGB"><feFlood flood-color="#fff" result="bg"/><feBlend in="SourceGraphic" in2="bg"/></filter><mask id="mask-7" x="325.64" y="-8692" width="358.25" height="32766" maskUnits="userSpaceOnUse"><g class="cls-106"/></mask><linearGradient id="linear-gradient-7" x1="-122.62" y1="-76.71" x2="-123.61" y2="52.58" gradientTransform="matrix(0.65, 0, 0, -0.65, 585.37, 522.49)" xlink:href="#linear-gradient-4"/><filter id="luminosity-noclip-8" x="316.14" y="-8692" width="337.67" height="32766" filterUnits="userSpaceOnUse" color-interpolation-filters="sRGB"><feFlood flood-color="#fff" result="bg"/><feBlend in="SourceGraphic" in2="bg"/></filter><mask id="mask-8" x="316.14" y="-8692" width="337.67" height="32766" maskUnits="userSpaceOnUse"><g class="cls-105"/></mask><linearGradient id="linear-gradient-8" x1="626.37" y1="-29.27" x2="739.88" y2="69.43" xlink:href="#linear-gradient-4"/><filter id="luminosity-noclip-10" x="465.57" y="-8692" width="207.02" height="32766" filterUnits="userSpaceOnUse" color-interpolation-filters="sRGB"><feFlood flood-color="#fff" result="bg"/><feBlend in="SourceGraphic" in2="bg"/></filter><mask id="mask-10" x="465.57" y="-8692" width="207.02" height="32766" maskUnits="userSpaceOnUse"><g class="cls-104"/></mask><linearGradient id="linear-gradient-10" x1="869.46" y1="233.73" x2="897.58" y2="213.99" gradientTransform="matrix(0.65, 0, 0, -0.65, -52.34, 544.12)" gradientUnits="userSpaceOnUse"><stop offset="0" stop-color="#fff"/><stop offset="0.25" stop-color="#bfbfbf"/><stop offset="0.5" stop-color="#7f7f7f"/><stop offset="1"/></linearGradient><filter id="luminosity-noclip-11" x="571.65" y="-8692" width="85.16" height="32766" filterUnits="userSpaceOnUse" color-interpolation-filters="sRGB"><feFlood flood-color="#fff" result="bg"/><feBlend in="SourceGraphic" in2="bg"/></filter><mask id="mask-11" x="571.65" y="-8692" width="85.16" height="32766" maskUnits="userSpaceOnUse"><g class="cls-103"/></mask><linearGradient id="linear-gradient-11" x1="941.81" y1="305.17" x2="998.06" y2="294.31" gradientTransform="matrix(0.65, 0, 0, -0.65, -52.34, 544.12)" gradientUnits="userSpaceOnUse"><stop offset="0"/><stop offset="0.11" stop-color="#f2f2f2"/><stop offset="0.22" stop-color="#e6e6e6"/><stop offset="0.51" stop-color="#7f7f7f"/><stop offset="1"/></linearGradient><filter id="luminosity-noclip-12" x="618.05" y="-8692" width="36.7" height="32766" filterUnits="userSpaceOnUse" color-interpolation-filters="sRGB"><feFlood flood-color="#fff" result="bg"/><feBlend in="SourceGraphic" in2="bg"/></filter><mask id="mask-12" x="618.05" y="-8692" width="36.7" height="32766" maskUnits="userSpaceOnUse"><g class="cls-102"/></mask><linearGradient id="linear-gradient-12" x1="667.14" y1="-121.04" x2="666.86" y2="-138.26" gradientTransform="matrix(0.65, 0, 0, -0.65, 202.58, 434.07)" gradientUnits="userSpaceOnUse"><stop offset="0" stop-color="#fff"/><stop offset="0.5" stop-color="#e6e6e6"/><stop offset="0.7" stop-color="#7f7f7f"/><stop offset="1"/></linearGradient><filter id="luminosity-noclip-13" x="318.44" y="-8692" width="341.64" height="32766" filterUnits="userSpaceOnUse" color-interpolation-filters="sRGB"><feFlood flood-color="#fff" result="bg"/><feBlend in="SourceGraphic" in2="bg"/></filter><mask id="mask-13" x="318.44" y="-8692" width="341.64" height="32766" maskUnits="userSpaceOnUse"><g class="cls-101"/></mask><radialGradient id="radial-gradient" cx="266.2" cy="-70.25" r="170.81" gradientTransform="matrix(0.12, 0.5, 0.64, -0.15, 509.02, 237.95)" gradientUnits="userSpaceOnUse"><stop offset="0" stop-color="#e6e6e6"/><stop offset="0.75" stop-color="#737373"/><stop offset="1"/></radialGradient><filter id="luminosity-noclip-14" x="325.76" y="-8692" width="358.14" height="32766" filterUnits="userSpaceOnUse" color-interpolation-filters="sRGB"><feFlood flood-color="#fff" result="bg"/><feBlend in="SourceGraphic" in2="bg"/></filter><mask id="mask-14" x="325.76" y="-8692" width="358.14" height="32766" maskUnits="userSpaceOnUse"><g class="cls-100"/></mask><linearGradient id="linear-gradient-13" x1="598.65" y1="557.44" x2="985.12" y2="390.74" gradientTransform="matrix(0.65, 0, 0, -0.65, -52.34, 708.26)" gradientUnits="userSpaceOnUse"><stop offset="0"/><stop offset="0.39" stop-color="#f2f2f2"/><stop offset="0.47" stop-color="#e6e6e6"/><stop offset="0.7" stop-color="#7f7f7f"/><stop offset="1"/></linearGradient><linearGradient id="linear-gradient-14" x1="-128.23" y1="-7.84" x2="-126.25" y2="55.32" gradientTransform="matrix(0.65, 0, 0, -0.65, 585.37, 522.49)" xlink:href="#linear-gradient-4"/><filter id="luminosity-noclip-16" x="326.57" y="-8692" width="358.25" height="32766" filterUnits="userSpaceOnUse" color-interpolation-filters="sRGB"><feFlood flood-color="#fff" result="bg"/><feBlend in="SourceGraphic" in2="bg"/></filter><mask id="mask-16" x="326.57" y="-8692" width="358.25" height="32766" maskUnits="userSpaceOnUse"><g class="cls-99"/></mask><linearGradient id="linear-gradient-15" x1="678.01" y1="615.09" x2="730.89" y2="559.33" gradientTransform="matrix(0.65, 0, 0, -0.65, -51.63, 707.55)" xlink:href="#linear-gradient-4"/><linearGradient id="linear-gradient-16" x1="143.34" y1="2.4" x2="1256.26" y2="2.4" gradientTransform="matrix(0.57, 0, 0, -0.57, 99.35, 659.65)" gradientUnits="userSpaceOnUse"><stop offset="0" stop-color="#646464"/><stop offset="1" stop-color="#888"/></linearGradient><linearGradient id="linear-gradient-17" x1="702.46" y1="-101.51" x2="697.11" y2="119.91" gradientTransform="matrix(0.57, 0, 0, -0.57, 99.35, 659.02)" gradientUnits="userSpaceOnUse"><stop offset="0" stop-color="#505050"/><stop offset="0.06" stop-color="#525252"/><stop offset="0.56" stop-color="#555"/><stop offset="0.79" stop-color="#5a5a5a"/><stop offset="1" stop-color="#c8c8c8"/></linearGradient><linearGradient id="linear-gradient-18" x1="692.62" y1="87.01" x2="692.62" y2="65.96" gradientTransform="matrix(0.57, 0, 0, -0.57, 99.35, 659.02)" gradientUnits="userSpaceOnUse"><stop offset="0" stop-color="#b8b8b8"/><stop offset="1" stop-color="#828282"/></linearGradient><linearGradient id="linear-gradient-19" x1="1158.98" y1="79.1" x2="1154.1" y2="-104.7" gradientTransform="matrix(0.57, 0, 0, -0.5, 99.35, 642.16)" gradientUnits="userSpaceOnUse"><stop offset="0" stop-color="#464646"/><stop offset="1"/></linearGradient><linearGradient id="linear-gradient-20" x1="466.22" y1="106.14" x2="461.34" y2="-77.67" gradientTransform="matrix(0.57, 0, 0, -0.52, 99.35, 647.75)" xlink:href="#linear-gradient-19"/><linearGradient id="linear-gradient-21" x1="1120.35" y1="111.2" x2="1115.47" y2="-72.62" gradientTransform="matrix(0.57, 0, 0, -0.57, 99.35, 659.02)" xlink:href="#linear-gradient-19"/><linearGradient id="linear-gradient-22" x1="966.26" y1="115.29" x2="961.38" y2="-68.53" gradientTransform="matrix(0.57, 0, 0, -0.57, 99.35, 659.02)" xlink:href="#linear-gradient-19"/><linearGradient id="linear-gradient-23" x1="465.56" y1="110.56" x2="460.68" y2="-73.26" gradientTransform="matrix(0.57, 0, 0, -0.53, 99.35, 651.14)" xlink:href="#linear-gradient-19"/><linearGradient id="linear-gradient-24" x1="973.3" y1="115.1" x2="968.42" y2="-68.72" gradientTransform="matrix(0.57, 0, 0, -0.57, 99.35, 659.02)" xlink:href="#linear-gradient-19"/><linearGradient id="linear-gradient-25" x1="476.23" y1="128.3" x2="471.35" y2="-55.52" gradientTransform="matrix(0.57, 0, 0, -0.57, 99.35, 659.02)" xlink:href="#linear-gradient-19"/><linearGradient id="linear-gradient-26" x1="597.3" y1="113.68" x2="593.36" y2="-77.09" gradientTransform="matrix(0.57, 0, 0, -0.57, 99.35, 659.02)" gradientUnits="userSpaceOnUse"><stop offset="0" stop-color="#787878"/><stop offset="1" stop-color="#1e1e1e"/></linearGradient><linearGradient id="linear-gradient-27" x1="708.93" y1="112.62" x2="715.5" y2="-42.63" gradientTransform="matrix(0.57, 0, 0, -0.57, 99.35, 659.02)" gradientUnits="userSpaceOnUse"><stop offset="0" stop-color="#b4b4b4"/><stop offset="0.32" stop-color="#828282"/><stop offset="1" stop-color="#3c3c3c"/></linearGradient><linearGradient id="linear-gradient-28" x1="740.09" y1="-90.09" x2="746.6" y2="18.03" gradientTransform="matrix(0.57, 0, 0, -0.57, 99.35, 659.02)" gradientUnits="userSpaceOnUse"><stop offset="0" stop-color="#828282"/><stop offset="0.5" stop-color="#828282"/><stop offset="1" stop-color="#3c3c3c"/></linearGradient><linearGradient id="linear-gradient-29" x1="372.22" y1="24.69" x2="374.85" y2="-56.88" xlink:href="#linear-gradient-28"/><linearGradient id="linear-gradient-30" x1="105.37" y1="76.99" x2="621.38" y2="-258.21" gradientTransform="matrix(0.65, 0, 0, -0.65, 243.39, 428.66)" gradientUnits="userSpaceOnUse"><stop offset="0" stop-color="#000032"/><stop offset="0.25" stop-color="#646464"/><stop offset="0.42"/><stop offset="1" stop-color="#787878"/></linearGradient><filter id="luminosity-noclip-17" x="338.64" y="482.75" width="285.98" height="76.43" filterUnits="userSpaceOnUse" color-interpolation-filters="sRGB"><feFlood flood-color="#fff" result="bg"/><feBlend in="SourceGraphic" in2="bg"/></filter><mask id="mask-17" x="157.64" y="180.53" width="285.98" height="76.43" maskUnits="userSpaceOnUse"><g class="cls-98"><g transform="translate(-181 -302.23)"><g class="cls-1"><path id="path3126" class="cls-2" d="M469.24,559c-15.57-1.66-38.41-6.62-50.46-11-8.54-3.07-26.61-11-31.29-13.67-5.2-3-17.84-12.41-25.21-18.75-9.56-8.23-24.88-27.54-23.55-29.69.38-.61,7.24-3.17,8.49-3.17.23,0,1.5,1.89,3,4.57,6.85,12.18,17,23.11,28.37,32.36,15.18,12.37,26.12,17.84,48.29,24.14,45.72,13,98.92,12.38,141.47-1.61,16.62-5.46,33.43-14.58,39.76-21.57,1.71-1.9,15.32-6.69,16.27-5.74,1.2,1.2-2,5.27-8.59,10.94-11.75,10.09-41,22.69-64.38,27.74-21.06,4.54-28.48,5.3-54.22,5.54-13.51.12-26.09.06-27.95-.13Z"/></g></g></g></mask><linearGradient id="linear-gradient-31" x1="229.17" y1="44.56" x2="756.22" y2="48.51" gradientTransform="matrix(0.65, 0, 0, -0.65, 175.57, 550.65)" gradientUnits="userSpaceOnUse"><stop offset="0" stop-color="#999"/><stop offset="0.22" stop-color="#3c3c3c"/><stop offset="0.52" stop-color="#969696"/><stop offset="0.75" stop-color="#828282"/><stop offset="1" stop-color="#5a5a5a"/></linearGradient><filter id="luminosity-noclip-18" x="325.64" y="311.29" width="358.25" height="220.45" filterUnits="userSpaceOnUse" color-interpolation-filters="sRGB"><feFlood flood-color="#fff" result="bg"/><feBlend in="SourceGraphic" in2="bg"/></filter><mask id="mask-18" x="144.64" y="9.07" width="358.25" height="220.45" maskUnits="userSpaceOnUse"><g class="cls-97"><g transform="translate(-181 -302.23)"><g class="cls-13"><path id="path3068-2" class="cls-14" d="M386.45,530.16c-6.85-2.18-10.63-4.33-19.06-10.88-18.53-14.38-31.92-32.6-37.84-51.45-3.49-11.13-4.28-18.42-3.76-34.55.4-12.38.81-15.72,2.7-22.16,4.72-16,11.26-28.21,22.2-41.35,24.79-29.77,71.09-52.22,118.22-57.34,13-1.41,37.43-1.54,41.18-.21s7.89,5.84,9.19,10.17c.86,2.87.75,3.71-.92,7a46.49,46.49,0,0,1-4.32,6.71c-1.33,1.64-4.8,6.12-7.71,10s-9.7,12.42-15.09,19.06-14.17,18.17-19.51,25.62c-9.88,13.8-31.52,46.54-35.83,54.22-1.31,2.33-3.64,6-5.18,8.14a83.66,83.66,0,0,0-5.87,10.38c-2.82,5.95-3,7-2.75,12.69.39,7.79,2.82,11.85,9.8,16.35,10.5,6.77,1,6.24,111.77,6.24h98.84l8.57-9.24c6.62-7.13,9.23-10.67,11.48-15.54a122.53,122.53,0,0,0,8.15-26.7c1.25-7.16.47-26.36-1.26-31.26a130.19,130.19,0,0,0-16.16-37.56c-13.57-21.19-32.91-38-60.86-53-5-2.65-17.63-8.76-17.43-9,.61-.61,19.48,7.27,28.78,11.91,23,11.45,42.75,27.84,55.87,46.34,9.73,13.71,17.8,29.32,21.78,45,2.22,8.75,2.49,16.37,2.46,25.9,0,19-4,31.52-13.33,49.66-6.52,12.73-8,14.36-17.9,19.57l-11,4-97.52.61c-99.54.62-99.82,0-109.52-1.88-20.76-4-29.27-8.95-34.69-20.17-2.69-5.57-3.29-16.38-1.34-24.15,4.46-17.79,35.05-65.19,77.84-120.62,8.15-10.55,15.21-19.91,15.68-20.8,2.26-4.22,0-7-6.43-8-4.49-.67-27.36,2.89-37.25,5.8-24.2,7.09-33.54,10.71-45.62,17.66-18.18,10.45-33.09,23.29-43.44,37.41-11,15.06-15.42,24.53-19.6,42.3-2.46,10.51-1.89,26.92,1.35,38.59,6.75,24.31,21.09,43.22,45.93,60.53a70.67,70.67,0,0,1,7,5.22c0,.69-3,.18-7.61-1.28Z"/></g></g></g></mask><linearGradient id="linear-gradient-32" x1="-122.62" y1="-76.71" x2="-123.61" y2="52.58" gradientTransform="matrix(0.65, 0, 0, -0.65, 585.37, 522.49)" gradientUnits="userSpaceOnUse"><stop offset="0"/><stop offset="1"/></linearGradient><linearGradient id="linear-gradient-33" x1="-266.64" y1="291.9" x2="111.03" y2="-138.43" gradientTransform="matrix(0.65, 0, 0, -0.65, 585.75, 522.62)" gradientUnits="userSpaceOnUse"><stop offset="0" stop-color="#5a5a5a"/><stop offset="0.27" stop-color="#505050"/><stop offset="0.63" stop-color="#666"/><stop offset="0.67" stop-color="#666"/><stop offset="1" stop-color="#666"/></linearGradient><filter id="luminosity-noclip-19" x="325.76" y="311.29" width="358.14" height="208.45" filterUnits="userSpaceOnUse" color-interpolation-filters="sRGB"><feFlood flood-color="#fff" result="bg"/><feBlend in="SourceGraphic" in2="bg"/></filter><mask id="mask-19" x="144.76" y="9.07" width="358.14" height="208.45" maskUnits="userSpaceOnUse"><g class="cls-96"><g transform="translate(-181 -302.23)"><g class="cls-25"><path id="path3305" class="cls-26" d="M325.79,433.28c.4-12.38.81-15.72,2.7-22.16,4.72-16,11.26-28.21,22.2-41.35,24.79-29.77,71.09-52.22,118.22-57.34,13-1.41,37.43-1.54,41.18-.21s7.89,5.84,9.19,10.17c.86,2.87.75,3.71-.92,7a46.49,46.49,0,0,1-4.32,6.71c-1.33,1.64-4.8,6.12-7.71,10s-9.7,12.42-15.09,19.06-14.17,18.17-19.51,25.62c-9.88,13.8-31.52,46.54-35.83,54.22-1.31,2.33-3.64,6-5.18,8.14a83.66,83.66,0,0,0-5.87,10.38c-2.82,5.95-3,7-2.75,12.69.39,7.79,2.82,11.85,9.8,16.35,10.5,6.77,1,6.24,111.77,6.24h98.84l8.57-9.24c6.62-7.13,9.23-10.67,11.48-15.54a122.53,122.53,0,0,0,8.15-26.7c1.25-7.16.47-26.36-1.26-31.26-3.27-13.27-10.64-24.64-17.77-35.95-13.57-21.2-32.9-38-60.85-53-5-2.65-16-10.37-15.83-10.57.61-.61,19.48,7.27,28.78,11.91,23,11.45,42.75,27.84,55.87,46.34,9.73,13.71,17.8,29.32,21.78,45,2.22,8.75,2.49,16.37,2.46,25.9,0,19-4,31.52-13.33,49.67-6.52,12.72-8,14.35-17.9,19.56l-11,4-97.52.61c-99.54.62-99.82,0-109.52-1.88-20.76-4-29.27-8.95-34.69-20.17-2.69-5.57-3.29-16.38-1.34-24.15,4.46-17.79,35.05-65.19,77.84-120.62,8.15-10.55,15.21-19.91,15.68-20.8,2.26-4.22,0-7-6.43-8-4.49-.67-27.36,2.89-37.25,5.8-24.2,7.09-33.54,10.71-45.62,17.66-18.18,10.45-33.09,23.29-43.44,37.41-11,15.06-15.42,24.53-19.6,42.3-2.46,10.51-1.89,26.92,1.35,38.59-14.07-11.76-15.67-22.18-15.37-32.41Z"/></g></g></g></mask><linearGradient id="linear-gradient-35" x1="598.65" y1="557.44" x2="985.12" y2="390.74" gradientTransform="matrix(0.65, 0, 0, -0.65, -52.34, 708.26)" gradientUnits="userSpaceOnUse"><stop offset="0" stop-color="#323232"/><stop offset="0.39" stop-color="#323232"/><stop offset="0.47" stop-color="#323232"/><stop offset="0.7" stop-color="#e1e1e1"/><stop offset="1" stop-color="#c8c8c8"/></linearGradient><filter id="luminosity-noclip-20" x="325.64" y="311.29" width="358.25" height="208.45" filterUnits="userSpaceOnUse" color-interpolation-filters="sRGB"><feFlood flood-color="#fff" result="bg"/><feBlend in="SourceGraphic" in2="bg"/></filter><mask id="mask-20" x="144.64" y="9.07" width="358.25" height="208.45" maskUnits="userSpaceOnUse"><g class="cls-95"><g transform="translate(-181 -302.23)"><g class="cls-13"><path id="path3992-7" class="cls-27" d="M329.55,467.83c-3.49-11.13-4.28-18.42-3.76-34.55.4-12.38.81-15.72,2.7-22.16,4.72-16,11.26-28.21,22.2-41.35,24.79-29.77,71.09-52.22,118.22-57.34,13-1.41,37.43-1.54,41.18-.21s7.89,5.84,9.19,10.17c.86,2.87.75,3.71-.92,7a46.49,46.49,0,0,1-4.32,6.71c-1.33,1.64-4.8,6.12-7.71,10s-9.7,12.42-15.09,19.06-14.17,18.17-19.51,25.62c-9.88,13.8-31.52,46.54-35.83,54.22-1.31,2.33-3.64,6-5.18,8.14a83.66,83.66,0,0,0-5.87,10.38c-2.82,5.95-3,7-2.75,12.69.39,7.79,2.82,11.85,9.8,16.35,10.5,6.77,1,6.24,111.77,6.24h98.84l8.57-9.24c6.62-7.13,9.23-10.67,11.48-15.54a122.53,122.53,0,0,0,8.15-26.7c1.25-7.16.47-26.36-1.26-31.26a130.19,130.19,0,0,0-16.16-37.56c-13.57-21.19-32.91-38-60.86-53-5-2.65-17.63-8.76-17.43-9,.61-.61,19.48,7.27,28.78,11.91,23,11.45,42.75,27.84,55.87,46.34,9.73,13.71,17.8,29.32,21.78,45,2.22,8.75,2.49,16.37,2.46,25.9,0,19-4,31.52-13.33,49.67-6.52,12.72-8,14.35-17.9,19.56l-11,4-97.52.61c-99.54.62-99.82,0-109.52-1.88-20.76-4-29.27-8.95-34.69-20.17-2.69-5.57-3.29-16.38-1.34-24.15,4.46-17.79,35.05-65.19,77.84-120.62,8.15-10.55,15.21-19.91,15.68-20.8,2.26-4.22,0-7-6.43-8-4.49-.67-27.36,2.89-37.25,5.8-24.2,7.09-33.54,10.71-45.62,17.66-18.18,10.45-33.09,23.29-43.44,37.41-11,15.06-15.42,24.53-19.6,42.3-2.46,10.51-1.89,26.92,1.35,38.59-4,2.31,6.59,18.39-11.61,2.14Z"/></g></g></g></mask><linearGradient id="linear-gradient-36" x1="-128.23" y1="-7.84" x2="-126.25" y2="55.32" xlink:href="#linear-gradient-32"/><filter id="luminosity-noclip-21" x="326.57" y="310.36" width="358.25" height="208.45" filterUnits="userSpaceOnUse" color-interpolation-filters="sRGB"><feFlood flood-color="#fff" result="bg"/><feBlend in="SourceGraphic" in2="bg"/></filter><mask id="mask-21" x="145.57" y="8.14" width="358.25" height="208.45" maskUnits="userSpaceOnUse"><g class="cls-94"><g transform="translate(-181 -302.23)"><g class="cls-28"><path id="path3274" class="cls-29" d="M330.48,466.9c-3.49-11.13-4.28-18.42-3.76-34.55.4-12.38.81-15.72,2.7-22.16,4.72-16,11.26-28.21,22.2-41.35,24.79-29.77,71.09-52.22,118.22-57.34,13.05-1.41,37.43-1.54,41.18-.21s7.89,5.84,9.19,10.17c.86,2.87.75,3.71-.92,7a46.49,46.49,0,0,1-4.32,6.71c-1.33,1.64-4.8,6.12-7.71,10s-9.7,12.42-15.09,19.06S478,382.36,472.66,389.81c-9.88,13.8-31.52,46.54-35.83,54.22-1.31,2.33-3.64,6-5.18,8.14a83.66,83.66,0,0,0-5.87,10.38c-2.82,5.95-3,7-2.75,12.69.39,7.79,2.82,11.85,9.8,16.34,10.5,6.78,1,6.24,111.77,6.24h98.84l8.57-9.23c6.62-7.13,9.23-10.67,11.48-15.54a122.53,122.53,0,0,0,8.15-26.7c1.25-7.16.47-26.36-1.26-31.26-3.27-13.27-10.64-24.64-17.77-35.95-13.57-21.2-32.9-38-60.85-53-5-2.65-16-10.37-15.83-10.57.61-.61,19.48,7.27,28.78,11.91,23,11.45,42.75,27.84,55.87,46.34,9.73,13.71,17.8,29.32,21.78,45,2.22,8.75,2.49,16.37,2.46,25.9-.05,19-4,31.52-13.33,49.66-6.52,12.73-8,14.36-17.9,19.57l-11,4-97.52.61c-99.54.62-99.82,0-109.52-1.88-20.76-4-29.27-9-34.69-20.17-2.69-5.57-3.29-16.38-1.34-24.15,4.46-17.79,35.05-65.19,77.85-120.62,8.14-10.55,15.2-19.91,15.67-20.8,2.26-4.22,0-7-6.43-8-4.49-.67-27.36,2.89-37.25,5.8-24.2,7.09-33.54,10.71-45.62,17.66-18.18,10.45-33.09,23.29-43.44,37.41-11,15.06-15.42,24.53-19.6,42.3-2.46,10.51-1.89,26.92,1.35,38.59-3.95,2.31-3.09,1.38-11.6,2.14Z"/></g></g></g></mask><linearGradient id="linear-gradient-37" x1="678.01" y1="615.09" x2="730.89" y2="559.33" gradientTransform="matrix(0.65, 0, 0, -0.65, -51.63, 707.55)" gradientUnits="userSpaceOnUse"><stop offset="0" stop-color="#28170b"/><stop offset="1" stop-color="#28170b"/></linearGradient><filter id="luminosity-noclip-22" x="470.57" y="312.1" width="47.88" height="43.63" filterUnits="userSpaceOnUse" color-interpolation-filters="sRGB"><feFlood flood-color="#fff" result="bg"/><feBlend in="SourceGraphic" in2="bg"/></filter><mask id="mask-22" x="289.57" y="9.88" width="47.88" height="43.63" maskUnits="userSpaceOnUse"><g class="cls-93"><g transform="translate(-181 -302.23)"><g class="cls-3"><path id="path3068-2-3-6-4" class="cls-4" d="M470.57,313.19c12.28-1.35,35.22-1.47,38.75-.19s7.42,5.59,8.64,9.74c.81,2.75.7,3.56-.87,6.7a43.69,43.69,0,0,1-4.06,6.43c-1.26,1.57-4.52,5.87-7.25,9.55-19.79,19.91-16.06,8.6-13.34-13.57,2.12-4.05,0-6.72-6.06-7.64-7.71-6.1-.35-5.08-15.81-11Z"/></g></g></g></mask><linearGradient id="linear-gradient-38" x1="-126.95" y1="279.33" x2="-147.23" y2="326.16" gradientTransform="matrix(0.61, 0, 0, -0.62, 580.54, 512.56)" gradientUnits="userSpaceOnUse"><stop offset="0" stop-color="#b3b3b3"/><stop offset="0.16" stop-color="#b3b3b3"/><stop offset="0.34" stop-color="#b3b3b3"/><stop offset="0.41" stop-color="#b3b3b3"/><stop offset="0.66" stop-color="#b3b3b3"/><stop offset="1" stop-color="#b3b3b3"/></linearGradient><filter id="luminosity-noclip-23" x="397.77" y="366.41" width="193.84" height="152.07" filterUnits="userSpaceOnUse" color-interpolation-filters="sRGB"><feFlood flood-color="#fff" result="bg"/><feBlend in="SourceGraphic" in2="bg"/></filter><mask id="mask-23" x="216.77" y="64.19" width="193.84" height="152.07" maskUnits="userSpaceOnUse"><g class="cls-92"><g transform="translate(-181 -302.23)"><g class="cls-5"><path id="path3068-2-3-6" class="cls-6" d="M486,370.29c-5.07,6.37-13.33,17.42-18.35,24.56-9.3,13.23-29.66,44.6-33.72,52-1.23,2.23-3.42,5.74-4.87,7.8a80.4,80.4,0,0,0-5.52,9.94c-2.66,5.71-2.86,6.68-2.59,12.17.37,7.47,2.66,11.35,9.22,15.66,9.88,6.49.9,6,105.15,6,13.56,6,119.34,16.08.48,19.9-93.65.59-93.91,0-103-1.8-19.53-3.84-27.53-8.58-32.63-19.34-2.53-5.33-3.1-15.69-1.26-23.14C422,393.66,497,353.16,486,370.29Z"/></g></g></g></mask><linearGradient id="linear-gradient-39" x1="-145.42" y1="63.5" x2="-171.46" y2="144.66" gradientTransform="matrix(0.61, 0, 0, -0.62, 576.24, 517.63)" gradientUnits="userSpaceOnUse"><stop offset="0" stop-color="#b3b3b3"/><stop offset="0.12" stop-color="#b3b3b3"/><stop offset="0.29" stop-color="#b3b3b3"/><stop offset="0.38" stop-color="#b3b3b3"/><stop offset="0.52" stop-color="#b3b3b3"/><stop offset="1" stop-color="#b3b3b3"/></linearGradient><linearGradient id="linear-gradient-40" x1="998.86" y1="349.9" x2="1076.59" y2="117.78" gradientTransform="matrix(0.65, 0, 0, -0.65, -52.34, 544.12)" gradientUnits="userSpaceOnUse"><stop offset="0"/><stop offset="0.55" stop-color="#7d7d7d"/><stop offset="0.69" stop-color="#969696"/><stop offset="0.86" stop-color="#8a8a8a"/><stop offset="1" stop-color="#505050"/></linearGradient><linearGradient id="linear-gradient-41" x1="797.26" y1="129.02" x2="1052.85" y2="68.56" gradientTransform="matrix(0.65, 0, 0, -0.65, -52.34, 544.12)" gradientUnits="userSpaceOnUse"><stop offset="0" stop-color="#323232"/><stop offset="0.11" stop-color="#b4b4b6"/><stop offset="0.25" stop-color="#b4b4b4"/><stop offset="1" stop-color="#aaa"/></linearGradient><filter id="luminosity-noclip-24" x="465.98" y="469.63" width="182.16" height="21.02" filterUnits="userSpaceOnUse" color-interpolation-filters="sRGB"><feFlood flood-color="#fff" result="bg"/><feBlend in="SourceGraphic" in2="bg"/></filter><mask id="mask-24" x="284.98" y="167.4" width="182.16" height="21.02" maskUnits="userSpaceOnUse"><g class="cls-91"><g transform="translate(-181 -302.23)"><g class="cls-7"><path id="path4184" class="cls-8" d="M474.41,489.35C470,488.8,466,486,466,484.28s11.26-14.65,12.67-14.65c.47,0,.72,1.84,2.23,2.61,2.5,1.27,10.27,1.44,81.56,1.75l78.8.34,3.4,6.16c2.06,3.73,3.8,7.33,3.46,8.18-.51,1.3-48.48,2.08-126.73,2-46.56-.07-45.54-1.1-47-1.28Z"/></g></g></g></mask><linearGradient id="linear-gradient-42" x1="936.97" y1="118.56" x2="936.97" y2="75.98" gradientTransform="matrix(0.65, 0, 0, -0.65, -52.34, 544.12)" gradientUnits="userSpaceOnUse"><stop offset="0" stop-color="#505050"/><stop offset="1" stop-color="#fafafa"/></linearGradient><filter id="luminosity-noclip-25" x="316.14" y="302.46" width="343.56" height="262.41" filterUnits="userSpaceOnUse" color-interpolation-filters="sRGB"><feFlood flood-color="#fff" result="bg"/><feBlend in="SourceGraphic" in2="bg"/></filter><mask id="mask-25" x="135.14" y="0.24" width="343.56" height="262.41" maskUnits="userSpaceOnUse"><g class="cls-90"><g transform="translate(-181 -302.23)"><g class="cls-9"><path id="path3069" class="cls-10" d="M474.51,564c-81.89-7.15-147.38-55.14-157.11-115.15-6.08-37.5,10-74.09,45.49-103.46,12.21-10.1,15.42-12.18,31.14-20.14,29.38-14.88,57.92-21.67,95.3-22.67,20.12-.54,34.72.37,51.23,3.19,14.37,2.46,16.09,3.07,20.13,7.11,2.9,2.9,3.62,4.21,3.62,6.62,0,3.67-4,9.28-25.38,35.37-25.37,31-41,52-61.19,82.34C461,462.42,458.65,468,461.28,477.06c1.94,6.68,8,9.77,14,10.91,7.73,1.47,16.43,1.12,75,1,30.76-.05,96,.09,98-.06a8.47,8.47,0,0,0,5.93-2.64c6.05-7.83,8.42-11.1.42,3.12-3.42,6.08-8.64,10.79-14.38,12-6.66,1.38-181.79.7-191.42-.75-8.41-1.26-13.28-3.12-19.8-7.54-4.09-2.78-5.67-4.52-7.49-8.24-2-4.18-2.24-5.34-1.78-10.26.57-6.18,3.15-12.48,8-19.7,1.77-2.61,4.51-7,6.08-9.83s8.24-13.28,14.81-23.3c17.46-26.58,35.23-50.79,47.88-65.22,8-9.09,19.45-24.81,20.27-27.75,1.61-5.71-2.88-13.42-9.08-15.62-4.23-1.5-26.71-1.18-40.25.58-74.35,9.62-130.45,52.49-140,106.92-1.61,9.25-1.62,27.62,0,36.78,4.43,25.27,20.62,48.73,46.25,67,9.34,6.66,29.78,17.14,41.88,21.47,54.91,19.66,124.49,16.53,176.78-8,12.57-5.89,18-9.54,25.8-17.48l6.88-7L637,513c11.33-.54,17.61,0,16.78,1.39s-16.75,7.48-23.15,9.75c-3.61,1.28-7,3.6-12.09,6.81-39.21,24.65-93.66,37.48-144,33.09Z"/></g></g></g></mask><linearGradient id="linear-gradient-43" x1="648.43" y1="412" x2="760.95" y2="232.37" gradientTransform="matrix(0.65, 0, 0, -0.65, -52.63, 544.16)" gradientUnits="userSpaceOnUse"><stop offset="0" stop-color="#8282a9"/><stop offset="1" stop-color="#a9a9a9"/></linearGradient><filter id="luminosity-noclip-26" x="317.08" y="302.46" width="337.67" height="262.27" filterUnits="userSpaceOnUse" color-interpolation-filters="sRGB"><feFlood flood-color="#fff" result="bg"/><feBlend in="SourceGraphic" in2="bg"/></filter><mask id="mask-26" x="136.08" y="0.23" width="337.67" height="262.27" maskUnits="userSpaceOnUse"><g class="cls-89"><g transform="translate(-181 -302.23)"><g class="cls-11"><path id="path3314" class="cls-12" d="M475.44,563.88c-81.89-7.15-147.37-55.14-157.11-115.15-6.08-37.5,10-74.09,45.49-103.46,12.21-10.1,15.43-12.18,31.14-20.14,29.39-14.88,57.92-21.67,95.31-22.67-12.25,6-5.58,10.48-21.86,11.17-74.35,9.62-130.46,52.49-140,106.92-1.62,9.25-1.63,27.62,0,36.77,4.43,25.28,20.62,48.74,46.25,67,9.34,6.66,29.78,17.14,41.88,21.47,54.91,19.66,124.49,16.53,176.78-8,12.57-5.89,18-9.54,25.8-17.48l6.88-7,11.88-.57c11.34-.54,17.61,0,16.78,1.39s-16.75,7.48-23.15,9.75c-3.61,1.28-7,3.6-12.09,6.81-39.21,24.65-93.66,37.48-144,33.09Z"/></g></g></g></mask><linearGradient id="linear-gradient-44" x1="613.67" y1="56.63" x2="475.7" y2="9.31" gradientTransform="matrix(0.65, 0, 0, -0.65, 202.58, 434.07)" gradientUnits="userSpaceOnUse"><stop offset="0" stop-color="#fafafa"/><stop offset="0.25" stop-color="#fafafa"/><stop offset="0.5" stop-color="#e1e1e1"/><stop offset="1" stop-color="#c8c8c8"/></linearGradient><linearGradient id="linear-gradient-45" x1="834.35" y1="392.5" x2="831.31" y2="-95.62" gradientTransform="matrix(0.65, 0, 0, -0.65, -52.34, 544.12)" gradientUnits="userSpaceOnUse"><stop offset="0" stop-color="#aaa"/><stop offset="0.1" stop-color="#bebebe"/><stop offset="0.21" stop-color="#bebebe"/><stop offset="0.55" stop-color="#b4b4b4"/><stop offset="0.67" stop-color="#878787"/><stop offset="0.78" stop-color="#969696"/><stop offset="1" stop-color="#aaa"/></linearGradient><filter id="luminosity-noclip-27" x="316.14" y="302.61" width="337.67" height="262.27" filterUnits="userSpaceOnUse" color-interpolation-filters="sRGB"><feFlood flood-color="#fff" result="bg"/><feBlend in="SourceGraphic" in2="bg"/></filter><mask id="mask-27" x="135.14" y="0.39" width="337.67" height="262.27" maskUnits="userSpaceOnUse"><g class="cls-88"><g transform="translate(-181 -302.23)"><g class="cls-15"><path id="path4198" class="cls-16" d="M474.51,564c-81.89-7.15-147.38-55.14-157.11-115.15-6.08-37.5,10-74.09,45.49-103.46,12.21-10.1,15.42-12.18,31.14-20.14,29.38-14.88,57.92-21.67,95.3-22.67-.78,8.15-13.67,11.2-21.86,11.17-74.35,9.62-130.45,52.49-140,106.92-1.61,9.25-1.62,27.62,0,36.78,4.43,25.27,20.62,48.73,46.25,67,9.34,6.66,29.78,17.14,41.88,21.47,54.91,19.66,124.49,16.53,176.78-8,12.57-5.89,18-9.54,25.8-17.48l6.88-7L637,513c11.33-.54,17.61,0,16.78,1.39s-16.75,7.48-23.15,9.75c-3.61,1.28-7,3.6-12.09,6.81-39.21,24.65-93.66,37.48-144,33.09Z"/></g></g></g></mask><linearGradient id="linear-gradient-46" x1="626.37" y1="-29.27" x2="739.88" y2="69.43" gradientTransform="matrix(0.65, 0, 0, -0.65, -52.34, 544.12)" gradientUnits="userSpaceOnUse"><stop offset="0" stop-color="#e6e6e6"/><stop offset="1" stop-color="#fafafa"/></linearGradient><filter id="luminosity-noclip-29" x="465.57" y="315.56" width="207.02" height="178.18" filterUnits="userSpaceOnUse" color-interpolation-filters="sRGB"><feFlood flood-color="#fff" result="bg"/><feBlend in="SourceGraphic" in2="bg"/></filter><mask id="mask-29" x="284.57" y="13.33" width="207.02" height="178.18" maskUnits="userSpaceOnUse"><g class="cls-87"><g transform="translate(-181 -302.23)"><g class="cls-17"><path id="path4500" class="cls-18" d="M483.92,493c-6.73-.16-19.23-10-18.3-9.18,7.05,6,36.69,5.45,94.67,5.3l88-.21,2.24-2.15c1.23-1.18,4-5.85,6.16-10.37,12.76-26.84,12.81-54,.13-80.52-5.15-10.76-11.17-19.25-20.73-29.24-13.86-14.48-26.93-24.31-47.86-33.55-14.85-6.55-15.28-5.1-14.67-9.22a18.41,18.41,0,0,0-1-4c-1.95-7-1-5.44,16.57,3.77C612.79,336,625.57,344.46,640.47,360c32.92,34.3,41.11,78.56,21.89,118.33-3.68,7.6-9,12.8-14.82,14.6-2.61.8-18,.86-79.29.79-44,0-49.83.11-84.33-.72Z"/></g></g></g></mask><linearGradient id="linear-gradient-48" x1="869.46" y1="233.73" x2="897.58" y2="213.99" gradientTransform="matrix(0.65, 0, 0, -0.65, -52.34, 544.12)" gradientUnits="userSpaceOnUse"><stop offset="0" stop-color="#fafafa"/><stop offset="0.25" stop-color="#ededed"/><stop offset="0.5" stop-color="#e1e1e1"/><stop offset="1" stop-color="#c8c8c8"/></linearGradient><linearGradient id="linear-gradient-49" x1="845.09" y1="34.38" x2="1106.64" y2="304.81" gradientTransform="matrix(0.65, 0, 0, -0.65, -52.34, 544.12)" gradientUnits="userSpaceOnUse"><stop offset="0" stop-color="#969696"/><stop offset="0.13" stop-color="#c0bebe"/><stop offset="0.5" stop-color="#b4b4b4"/><stop offset="1" stop-color="#bebebe"/></linearGradient><filter id="luminosity-noclip-30" x="571.65" y="316.31" width="85.16" height="79.56" filterUnits="userSpaceOnUse" color-interpolation-filters="sRGB"><feFlood flood-color="#fff" result="bg"/><feBlend in="SourceGraphic" in2="bg"/></filter><mask id="mask-30" x="390.65" y="14.08" width="85.16" height="79.56" maskUnits="userSpaceOnUse"><g class="cls-86"><g transform="translate(-181 -302.23)"><g class="cls-19"><path id="path3284" class="cls-20" d="M656.81,395.86c-5.15-10.76-11.17-19.25-20.73-29.24-13.86-14.48-26.93-24.31-47.86-33.55-14.85-6.55-15.28-5.1-14.67-9.22a18.41,18.41,0,0,0-1-4c-1.95-7-2.18-3.17,15.44,6,23.67,12.37,37.59,18.52,52.49,34.05,12.72,17.32,4.29,8.07,16.34,35.87Z"/></g></g></g></mask><linearGradient id="linear-gradient-50" x1="941.81" y1="305.17" x2="998.06" y2="294.31" gradientTransform="matrix(0.65, 0, 0, -0.65, -52.34, 544.12)" gradientUnits="userSpaceOnUse"><stop offset="0"/><stop offset="0.11" stop-color="#323232"/><stop offset="0.22" stop-color="#323232"/><stop offset="0.51" stop-color="#e1e1e1"/><stop offset="1" stop-color="#c8c8c8"/></linearGradient><filter id="luminosity-noclip-31" x="618.05" y="512.64" width="36.7" height="12.27" filterUnits="userSpaceOnUse" color-interpolation-filters="sRGB"><feFlood flood-color="#fff" result="bg"/><feBlend in="SourceGraphic" in2="bg"/></filter><mask id="mask-31" x="437.05" y="210.41" width="36.7" height="12.27" maskUnits="userSpaceOnUse"><g class="cls-85"><g transform="translate(-181 -302.23)"><g class="cls-21"><path id="path3300" class="cls-22" d="M619.14,520.39l6.88-7,11.88-.57c11.34-.54,17.61,0,16.78,1.39-8,9-43.23,15.4-35.54,6.16Z"/></g></g></g></mask><linearGradient id="linear-gradient-51" x1="667.14" y1="-121.04" x2="666.86" y2="-138.26" gradientTransform="matrix(0.65, 0, 0, -0.65, 202.58, 434.07)" gradientUnits="userSpaceOnUse"><stop offset="0" stop-color="#fafafa"/><stop offset="0.5" stop-color="#fafafa"/><stop offset="0.7" stop-color="#e1e1e1"/><stop offset="1" stop-color="#c8c8c8"/></linearGradient><filter id="luminosity-noclip-32" x="318.44" y="302.23" width="341.64" height="262.41" filterUnits="userSpaceOnUse" color-interpolation-filters="sRGB"><feFlood flood-color="#fff" result="bg"/><feBlend in="SourceGraphic" in2="bg"/></filter><mask id="mask-32" x="137.44" y="0" width="341.64" height="262.41" maskUnits="userSpaceOnUse"><g class="cls-84"><g transform="translate(-181 -302.23)"><g class="cls-23"><path id="path3287" class="cls-24" d="M474.88,563.79C393,556.64,329.43,511.86,319.7,451.85c-6.08-37.5,10-73.45,45.49-102.81,12.21-10.11,15.82-12.22,30.58-20.82,28.45-16.59,56.55-24.84,93.94-25.85,20.12-.53,34.72.38,51.22,3.2,14.37,2.45,16.09,3.06,20.13,7.1,2.9,2.9,3.62,4.22,3.62,6.62,0,3.68-4,9.28-25.38,35.38-25.37,31-40.95,52-61.18,82.33-16.77,25.18-19.09,30.79-16.47,39.83,1.94,6.67,8,9.76,14,10.9,7.73,1.47,16.43,1.13,75,1,30.76-.05,96,.09,98-.05a8.49,8.49,0,0,0,5.92-2.65c6.05-7.82,8.42-11.09.43,3.12-3.43,6.08-8.64,10.8-14.39,12-6.66,1.38-181.78.7-191.41-.75-8.41-1.26-13.29-3.11-19.81-7.54-4.08-2.78-5.66-4.51-7.48-8.23-2.05-4.19-2.25-5.35-1.79-10.27.58-6.17,3.15-12.48,8-19.69,1.77-2.62,4.5-7,6.07-9.84s8.24-13.28,14.82-23.29c17.45-26.59,35.23-50.8,47.88-65.23,8-9.08,19.44-24.8,20.27-27.75,1.6-5.71-2.89-13.42-9.09-15.62-4.23-1.49-26.71-1.17-40.24.58-74.35,9.63-130.46,52.49-140,106.92-1.62,9.26-1.63,27.62,0,36.78,4.42,25.27,20.61,48.73,46.24,67,9.34,6.66,29.78,17.14,41.89,21.48,54.9,19.65,124.48,16.52,176.77-8,12.58-5.88,18-9.54,25.8-17.48l6.88-7,11.88-.57c11.34-.54,17.61,0,16.78,1.39s-16.75,7.48-23.15,9.75c-3.61,1.28-7,3.6-12.08,6.82-39.22,24.65-93.67,37.47-144,33.08Z"/></g></g></g></mask><radialGradient id="radial-gradient-2" cx="266.2" cy="-70.25" r="170.81" gradientTransform="matrix(0.12, 0.5, 0.64, -0.15, 509.02, 237.95)" gradientUnits="userSpaceOnUse"><stop offset="0" stop-color="#dcdcdc"/><stop offset="0.75" stop-color="#e1e1e1"/><stop offset="1" stop-color="#c8c8c8"/></radialGradient></defs><title>Lexus Logo Vector</title><path id="path3036-2" class="cls-30" d="M214.77,696.68C200,694.41,191,689,187.38,679l-1.93-5.32-2.93-26.91v-27.7l13.13-.2c11.68-.18,13.23-.07,14.07,1.06.7,1,.94,7.19.94,25.27,0,22.69.08,24.17,1.53,27.13a16.88,16.88,0,0,0,4.13,5.07c5.5,4.13,5,4.09,42.14,4.08H292.8l2.88-5.51a56.08,56.08,0,0,1,7.69-10.63,49.41,49.41,0,0,0,4.81-5.55c0-.23-.07-3.77-4.71-3.88l-12.17-.67-2.78.88c-6.3,2,12.17-19.16,21.18-26a63.49,63.49,0,0,1,9.94-5.89c10.45-4.75,11.41-4.81,77-4.79l59,0,17.83,12.91c9.81,7.1,18.19,12.9,18.64,12.9,1,0,28.19-16.57,36.29-22.12l6-4.1,22.32-.21c14.92-.15,22.82,0,23.83.58,1.47.77,1.51,1.49,1.51,26.27,0,21.26.19,25.93,1.15,28.2,1.5,3.53,3,5.16,6.73,7.1,2.88,1.52,4.05,1.59,30.69,1.82,15.23.13,28.48,0,29.44-.2l1.74-.43.2-30.83.19-30.82h27.76l.38,30.65.37,30.65,50.35.19,50.34.19,2.07-1.6a12.11,12.11,0,0,0,3.12-4.07,4.87,4.87,0,0,0,0-4.92,11.85,11.85,0,0,0-3.11-4.06L781.36,666H735.42c-39.91,0-48.7-1.13-49.51-2.09-1.2-1.42,2.67-9.28,4.89-15.12a59.4,59.4,0,0,1,9.69-15.48c3.65-4.1,12.57-9.65,18.47-11.5,5.17-1.62,5.6-1.64,48.35-1.44l43.14.21.22,6.58c.15,4.77,0,6.76-.75,7.19-.54.34-17.78.61-38.33.62-35.48,0-37.49.08-40.2,1.45-4.87,2.44-10.6,10.34-9.51,13.11.3.77,7.55,1,36.74,1,24.08,0,37.72.28,40.35.83a25.61,25.61,0,0,1,14.32,8c4.45,4.87,6,9.51,5.66,16.51-.62,11.34-8.15,19.21-20.23,21.14-6.83,1.09-213.44,1.06-220.6,0-12.44-1.9-18.78-5.57-22.51-13l-2.48-5-.38-25.44c-.24-16.58-.64-25.53-1.15-25.7C549.8,627.22,507,654.26,507,656l56.65,40.22c0,.43-12.64.81-24.89.81h-20l-17.81-12.56c-9.79-6.91-18.28-12.56-18.85-12.56-1,0-30.9,17.84-38.76,23.14l-4,2.72-109.27-.08C246.84,697.62,219.35,697.38,214.77,696.68Zm213.6-11.54c2.6-1.65,12.15-7.57,21.23-13.15s16.5-10.52,16.5-11c0-.78-43.6-32.34-45.83-33.19-.69-.25-4.92,1-3.59,3.21l-1.83,3.84-34.65.1c-37.79.12-38.7.41-41.63,2-4.42,2.34-14.44,11.2-14.44,13.92,0,1.24,8.06.78,46.56.79,22.38,0,41.4,0,41.4,0-3.1-.33-2,7.4-2,7.4l.05,6.53-32.53-.28c-37.21-.33-35.36.19-41,4.57-3.08,2.37-9.64,11.17-8.51,12.29l93.06-.25.23,7.36c.17,5.38,1-.24,7.05-4.08Z" transform="translate(-181 -302.23)"/><path id="path3036" class="cls-31" d="M213.57,690.92c-14.79-2.28-23.76-7.73-27.39-17.82l-1.93-5.37-2.92-27.13V612.66l13.12-.2c11.68-.18,13.23-.06,14.07,1.07.71,1,.94,7.25.94,25.49,0,22.87.08,24.37,1.54,27.35a16.79,16.79,0,0,0,4.12,5.12c5.51,4.17,5,4.12,42.14,4.11h34.35l2.87-5.55a57.37,57.37,0,0,1,7.69-10.72,52.68,52.68,0,0,0,4.82-5.59c0-.24-3.8-.52-8.44-.64l-8.44-.21.17-2.86c.4-6.65,9.21-19.32,18.22-26.2a63.41,63.41,0,0,1,9.94-5.94c10.45-4.79,11.41-4.85,77-4.83l59,0,17.83,13c9.81,7.15,18.2,13,18.64,13,1,0,28.19-16.71,36.29-22.31l6-4.13,22.89.06c23.37.07,22.82,0,23.83.59,1.46.78.94,1.23.94,26.21,0,21.44.19,26.15,1.15,28.44,1.5,3.56,3,5.2,6.73,7.16,2.88,1.54,4,1.61,30.69,1.83,15.23.13,28.48,0,29.44-.19l1.74-.44.2-31.09.2-31.08h27.75l.38,30.91.37,30.91,50.35.19,50.34.2,2.07-1.62a11.94,11.94,0,0,0,3.12-4.11c.9-2.12.9-2.84,0-5a12,12,0,0,0-3.11-4.1L780.16,660H734.22c-39.91,0-46.07-.15-46.88-1.12-1.2-1.43,0-10.35,2.26-16.24A60.08,60.08,0,0,1,699.29,627c3.65-4.13,12.57-9.73,18.47-11.59,5.17-1.64,5.6-1.65,48.35-1.45l43.14.21.22,6.64c.16,4.81-.05,6.81-.75,7.25-.53.34-17.78.62-38.32.62-35.49,0-37.5.09-40.21,1.46-4.87,2.46-10.59,10.43-9.51,13.22.3.78,7.55,1,36.74,1,24.08,0,37.72.28,40.35.83a25.53,25.53,0,0,1,14.32,8.09c4.45,4.91,6,9.58,5.66,16.64-.62,11.44-8.15,19.38-20.23,21.33-6.83,1.1-213.44,1.07-220.6,0-12.44-1.91-18.78-5.62-22.51-13.14l-2.48-5-.38-25.66c-.24-16.72-.64-25.74-1.15-25.91-1.8-.59-44.61,26.68-44.61,28.41l53.36,43c0,.44-9.35-1.68-21.59-1.68h-20l-17.81-12.66c-9.8-7-18.29-12.66-18.86-12.66-1,0-30.9,18-38.76,23.33l-4,2.74-109.27-.08c-83.21,0-110.7-.29-115.28-1Zm213.61-11.64c2.59-1.66,12.14-7.63,21.22-13.26s16.5-10.61,16.5-11.08c0-.78-38-30.2-44.35-35.77-2.29-2-5.08,3.66-3.76,5.87l-3.14,3.53-34.64.11c-37.8.12-38.71.41-41.64,2C333,633,322.94,642,322.94,644.7c0,1.25,8.05.79,46.55.8,22.38,0,41.4,0,41.4,0-.14.66-.05,8.13-.05,8.13l.05,5.26-34.51.37c-37.21.4-35.36.19-41,4.61-3.09,2.4-9.65,11.27-8.52,12.4l93.06-.25.23,7.42c.17,5.42,1-.25,7.06-4.12Z" transform="translate(-181 -302.23)"/><path id="path4156" class="cls-32" d="M181.59,612.15v7.05H211v-7.05Zm465.16.42v7.07H679v-7.07Zm-113.46,0-2.63,1.84h10.53a37.49,37.49,0,0,1,7.61.42l0,4.91h30.94v-7.15l-13.59.19c-12.6-.09-21.51-.15-32.83-.21ZM408.11,613c-6.27,0-13.52,0-21.88.07-51.77.18-56,.28-57.66,1.49,0,.53-2.37,1.51,3.54,1.09.87-.06,1.27.1,2.53,0,8.22.13,21.41-.14,50-.14,32,0,58.66.14,58.66-.17,0-1,1.74-1.57-2.19-1.91-4.29-.36-14.17-.43-33-.39Zm373.49.6-17.09.07c-40.42.19-43.71.31-45,1.52,0,.53-1.84,1.48,2.77,1.07a15.13,15.13,0,0,0,2,0c6.42.14,16.72-.14,39-.14,25,0,45.82.15,45.81-.16,0-1,1.35-1.57-1.72-1.91-3.35-.37-11.05-.46-25.72-.42Z" transform="translate(-181 -302.23)"/><g id="g3286"><path id="path3277" class="cls-33" d="M712.39,644.9c-1.88-3,4.52-11.63,11.64-15.58,8.06-4.47,11.22-4.78,49.67-4.79l35.93.43.56,5.84c-1.87.09-9,.11-37.22.14-41.46,0-41.92.09-47.63,4.79a16.22,16.22,0,0,0-4.27,5.28c-.39,1-.37,1.83-1,2.45a28.26,28.26,0,0,1-5.14,2c-.69.18-1.39.66-1.81.45s-.12-.15-.38-.51Z" transform="translate(-181 -302.23)"/><path id="path3275" class="cls-34" d="M312.52,650.29a24.07,24.07,0,0,1,1.31-5.34c1.95-5.83,6.86-11.43,13.31-15.2,7.75-4.53,9.86-4.73,52.31-4.77,23.52,0,37.25,0,37.25,0v6.9c-1.83-.22-14.66,0-36.93,0-38.88,0-40.74-.12-46.26,3.27a29.35,29.35,0,0,0-5.34,4.71c-2,2.29-4,4.35-5,6.67-1.8,1.59-4.1,1.64-5.82,2.43a27.77,27.77,0,0,1-4.95,1.91Z" transform="translate(-181 -302.23)"/><path id="path3272" class="cls-35" d="M784.29,671.51c1.06-4.19-4.23-9.74-10.16-11.08-1.46-.33-20.73-.43-42.82-.21s-41.35-.1-42.86-.12-2.21.11-2.52-.24c-.58-.69.81-2.36,3.56-4.46l3.17-2.43,38.86,0c42.94,0,49.05.38,52.57,2.89,6,4.27,8.42,11.2,5.3,15.14-2,2.59-7.74,6.16-9,5.38,3.17-2.6,3-2.48,3.92-4.91Z" transform="translate(-181 -302.23)"/><path id="path3270" class="cls-36" d="M650,678c-1.22-.69-3-.64-3.3-1.33s-.35-15.92-.35-32.7c0-21.42-.05-28.12-.24-31.58,1,0,3.53,1.09,5.65,3.2l3.41,4.16L655,676.57a28.05,28.05,0,0,1,0,3.55L650,678Z" transform="translate(-181 -302.23)"/><path id="path3268" class="cls-37" d="M315.81,679.56a20.66,20.66,0,0,1,1.12-8.21c1.64-4.35,7.71-10.58,12.47-12.77,7.32-3.37,8.92-3.5,45.21-3.5,25.17,0,36.15.18,36.15.18l.25,6.65s-13.5,0-34.63,0c-20.31,0-33.87.27-35.59.71-5.41,1.39-11.19,7-13.34,13-.36,1-10.35,3.85-11.17,4.21Z" transform="translate(-181 -302.23)"/><path id="path3266" class="cls-38" d="M580.44,692.34c-6.2-.79-16.8-4.41-20.57-7a30.71,30.71,0,0,1-8.07-9.16c-2.11-4-3-13.12-3-31.88,0-10.32.06-19.13-.29-19.35s-8.73,4.61-18.16,10.48c-17.64,11-22.7,14.4-26.13,16l-13.79.07c1.79-1.67,54-34.88,56.77-36,1.89-.79.66-1,1.56-.48,1.33.77,5.73,2.41,6.26,3.65,1,2.2.21,6.72.49,22.26.49,27.29.79,28.78,7,34.87a29.23,29.23,0,0,0,9.05,6s3.64,1.09,5.49,1.5c1.31.29,3.95.66,3.95.66l102.87.19,105.48.07a30,30,0,0,0,3.67-.8,24.61,24.61,0,0,0,2.59-1.25c13.59-6.54,18.31-15.4,13.43-25.21a26.57,26.57,0,0,0-4.89-6.52c-1.65-1.48-4.08-3.8-4-4.18.35-1,8.58,3.29,11,5.74,6.14,6.14,8.74,18.46,4.72,26.68-4.13,8.45-12.49,12.84-24.24,13.89-9.52.85-204.58.7-211.32-.16Z" transform="translate(-181 -302.23)"/><path id="path2998" class="cls-39" d="M213.21,692.09c-7.94-1.14-11.58-2.38-17-5.82a31.94,31.94,0,0,1-11.91-13.93c-.49-1.06-1.06-2.1-1.45-3.2a19.42,19.42,0,0,1-.75-2.91,50.73,50.73,0,0,1-.57-5.91c-.34-6.17-.25-18.53-.25-18.53L181.07,614c0-.82-.07-2-.07-2a30.64,30.64,0,0,1,5.19,3.41l4,3.45,0,19.29c0,21.45.42,23.94,3.75,31,2,4.25,6.38,8,13.44,11.6,8.3,4.21,8.11,4.2,112.68,4.2H416l4.81-3.53c2.65-2,12.92-8.57,22.82-14.72s18-11.53,18-12c0-1.58-4.51-5-38.17-28.95-6.49-4.62-11.48-8-14-10.25,2.41.06,7.92.14,11.37.14h5.43l16.38,11.67,23.84,17c4.1,2.93,9.71,7.24,9.17,7.59l-20.72,13.29c-6.3,4.05-13.22,8.31-15.27,9.63l-9.12,5.88c-3,1.92-5.6,4.28-5.6,4.69.6.36,2.77.27,6.34.26h6.15l21-13.72c11.57-7.55,21.7-13.93,22.51-14.19,2-.65,2.71-.24,22.38,13.76,9.63,6.86,18.55,13.65,19.37,14.07s5.14.09,10.06.33c3.56.17,5.49-.06,7.88.35,12.75,4.65,1.52.59,18.21,6.72l-43.26,0c-2.3-1.2-23.52-16.49-29.36-21.24-2.68-2.17-5.34-4-5.92-4s-4.1,2.07-7.82,4.63-12.12,8.25-18.64,12.66l-11.87,8-111-.08c-86-.06-112.55-.29-117.74-1Z" transform="translate(-181 -302.23)"/></g><path id="path3007" class="cls-40" d="M583,675.29c-4.8-1.29-8.13-3.73-9.49-5.58-.88-1.2-.93-1-1.15-1.63a18.35,18.35,0,0,1-.8-2.37c-1-6.65-.92-22.42-.92-22.42V620.35l4.15-3.71c2.29-2,4.29-3.83,4.46-4s.42-.06,1,.46c1,.81.57,5.18.57,28,0,30.21,2.41,31,8.82,34.74,2.78.74-2.82.52-6.69-.6Zm-372.31-1.56c-4.1-1-7.63-4.51-8.36-6.54l-.94-2.62c-.62-15.15-1-30.06-1-45.65l3-2.94a14.76,14.76,0,0,1,7.47-3.92c.27.58.19,13,.3,27.48.23,31.59-.23,29.27,6.55,33,1.92,1.07,5.67,2.09,5.46,2.44C222.62,675.75,214,674.52,210.69,673.73ZM669,649.52V619.43l2.62-2.3c2.85-2.51,7-4.88,7.55-4.32s.58,62.05.12,63.27c-.2.52-2.27,1.53-4.26,2.24-2.65.94-5.72,1.78-5.67,1.48-.4.32-.36-10-.36-30.28Z" transform="translate(-181 -302.23)"/><path id="path3124" class="cls-41" d="M685.69,659.93c0-3.82,2.34-15.38,5.54-21.93,4-8.28,11.25-16.23,17.87-19.7a28.76,28.76,0,0,1,5.49-2.43A57.61,57.61,0,0,1,725,614a69.5,69.5,0,0,0-7.86,3.63c-4.11,2.25-7.77,4.23-13.45,11.17a26.36,26.36,0,0,0-5.06,8.86c-2,5.69-2.58,11.52-3.15,15.19-2,1.07-1.83,1.57-9.76,7Zm-397.82-7.34c0-2.67,3.57-10.93,7.78-18,4.87-8.19,9.33-12.15,17.59-15.62,6.09-2.55,17.13-5.14,20-5.06,1.71,0-4.72,2.21-8.34,3.56-6.35,2.35-10.12,5.19-15.64,10.75-3.42,3.44-6.84,7.87-11.74,20.11L296,653.12l-4.37-.06c-3.13,0-3.18-.14-3.72-.47Zm150.79-39.52,15.69,0c20.92,15.44,32.72,23.44,36.46,26.14l-9,5.54c-20-14.39-25.78-19.13-43.19-31.66Z" transform="translate(-181 -302.23)"/><path id="path3136" class="cls-42" d="M504.89,661.84l-14.13-10.5H498c4,0,7.64-1.59,8.23-1.08,0,0,11.7,9.51,52.86,42.47-26.54-6.81-34.18-16-54.2-30.89Z" transform="translate(-181 -302.23)"/><path id="path3075" class="cls-43" d="M292.73,676.32c-1.24-.87-1.19-1.22.94-6,2.56-5.72,11.77-16,15.5-18.46a30.52,30.52,0,0,1,5.74-3.18c2-.76,4-1.68,5.72-2.36a18.89,18.89,0,0,1,6.92-.92l6,0-3.73,1.33a43.91,43.91,0,0,0-17,10.4,47.25,47.25,0,0,0-12.13,17.64,28,28,0,0,1-2.22,4.91c-2.18,0-3.84-2.17-5.7-3.46Z" transform="translate(-181 -302.23)"/><g id="g4115" class="cls-44"><path id="path4117" class="cls-45" d="M476.6,577.78c-32.7-2.84-67.56-12.93-93.27-27-20.5-11.24-40.63-28.34-53.57-45.51-6.51-8.63-13.66-22.38-17.69-34l-2.77-8,0-18c0-16.91.18-18.59,2.32-26.45,14.16-52.06,55.67-88.6,117.78-103.7,43.81-10.66,104.8-9.73,141.16,2.14,10.84,3.55,11.79,4.33,10.27,8.49s-.76,4.2,2.38-.12c1.5-2.08,3.31-3.78,4-3.78,2,0,11.65,4,21.75,8.91,39.56,19.4,66.6,51.66,75.76,90.37,2,8.25,2.23,11.24,2.23,23.72s-.28,15.46-2.22,23.66a134.24,134.24,0,0,1-13.26,33.78c-5,8.59-14.85,18.9-18.69,19.66-1.53.3-9,.55-16.66.55-8.69,0-13.88.32-13.88.84s5.17.85,13.77.86c7.57,0,14.34.37,15,.8,1.36.85.84,1.45-4.23,4.87-1.16.78-4.86,3.56-8.21,6.18C619,551.38,589,564.86,558.77,571.91a272.31,272.31,0,0,1-82.17,5.87Zm50.07-25.49c31.46-3.78,59.51-12.79,74.44-23.92,2.56-1.91,5.51-3.68,6.57-3.94s1.92-.78,1.92-1.14-36.69-.84-81.54-1c-78.54-.37-81.88-.45-90.86-2.16-20-3.79-28.43-8.63-34-19.45-2.2-4.25-2.39-5.36-2.37-13.86,0-7.45.39-10.28,2-14.69,6.55-18.36,39-67.13,77.09-115.76,7.76-9.92,14.58-18.81,15.14-19.77,2.61-4.4.4-7.37-6.21-8.34-4.5-.66-27.4,2.87-37.32,5.74-24.18,7-33.56,10.61-45.76,17.51-18,10.2-32.88,22.82-43.19,36.74-11.22,15.14-15.18,23.35-19.78,41.07-2.6,10-2.05,27.71,1.22,39.45,2.37,8.54,8.05,21,12.47,27.52,11.48,16.78,31.39,33.43,48.82,40.82,19.19,8.14,45,14.14,70.68,16.41,11.54,1,37.43.42,50.75-1.18Zm115-76.85c3.16-2,5.12-6,7.39-14.8,11.11-43.24-11.65-88-56-110.09a86.94,86.94,0,0,0-10.43-4.46c-4.76-1.41-6.45-3.9-5.72-8.41.78-4.83-.26-3.83-7.68,7.39-3.52,5.33-9.46,13.32-13.22,17.76-31.88,37.76-75.17,99.9-75.17,107.91a7.07,7.07,0,0,0,1.62,3.14c1.55,1.9,2.19,2,15.88,2.45,7.85.26,42.86.45,77.81.42,55,0,63.79-.22,65.48-1.31Z" transform="translate(-181 -302.23)"/></g><g id="g3049"><path id="path3051" class="cls-46" d="M471.11,572.3a229.72,229.72,0,0,1-76.95-22c-20.65-10-33.77-19.15-47.77-33.46-15.7-16-23.36-27.78-30.54-46.79-8.58-22.73-5.6-53.13,7.81-79.62,11.29-22.31,25.45-37.94,47.67-52.62,8.27-5.46,28.76-16,34.14-17.51,3.8-1.09-1.88,1-8.37,4.8-4,2.22-6.48,3.59-10.17,5.78-8.59,5.23-10.82,7.08-19.72,14.26-24.33,19.62-39.44,42.88-44.86,69.08-1.77,8.56-1.77,27.75,0,36.31,6.43,31.07,25.11,56.52,57,77.62,18.32,12.14,39.56,21.08,64.32,27.07,20.93,5.07,28.82,5.88,57.08,5.88,20.59,0,27.27-.29,35.51-1.56,26.31-4,54.36-13.14,73.14-23.73,15.37-8.67,20.48-11.69,21.87-12.93a49,49,0,0,1,7.88-4.18c4.25-1.9,7.27-3.9,8.85-5.86,2.37-2.92,2.53-3,8.54-3,3.61,0,9.13-5.21,9.13-4.71-7,10-18.65,21.18-25.24,26.25a153.18,153.18,0,0,1-31.45,19.36c-23.47,11.17-42.69,17.69-72.3,21.25a300,300,0,0,1-65.53.28Z" transform="translate(-181 -302.23)"/></g><g id="g3124"><g class="cls-47"><path id="path3126-2" data-name="path3126" class="cls-48" d="M469.24,559c-15.57-1.66-38.41-6.62-50.46-11-8.54-3.07-26.61-11-31.29-13.67-5.2-3-17.84-12.41-25.21-18.75-9.56-8.23-24.88-27.54-23.55-29.69.38-.61,7.24-3.17,8.49-3.17.23,0,1.5,1.89,3,4.57,6.85,12.18,17,23.11,28.37,32.36,15.18,12.37,26.12,17.84,48.29,24.14,45.72,13,98.92,12.38,141.47-1.61,16.62-5.46,33.43-14.58,39.76-21.57,1.71-1.9,15.32-6.69,16.27-5.74,1.2,1.2-2,5.27-8.59,10.94-11.75,10.09-41,22.69-64.38,27.74-21.06,4.54-28.48,5.3-54.22,5.54-13.51.12-26.09.06-27.95-.13Z" transform="translate(-181 -302.23)"/></g></g><g class="cls-49"><path id="path3068-2-2" data-name="path3068-2" class="cls-50" d="M386.45,530.16c-6.85-2.18-10.63-4.33-19.06-10.88-18.53-14.38-31.92-32.6-37.84-51.45-3.49-11.13-4.28-18.42-3.76-34.55.4-12.38.81-15.72,2.7-22.16,4.72-16,11.26-28.21,22.2-41.35,24.79-29.77,71.09-52.22,118.22-57.34,13-1.41,37.43-1.54,41.18-.21s7.89,5.84,9.19,10.17c.86,2.87.75,3.71-.92,7a46.49,46.49,0,0,1-4.32,6.71c-1.33,1.64-4.8,6.12-7.71,10s-9.7,12.42-15.09,19.06-14.17,18.17-19.51,25.62c-9.88,13.8-31.52,46.54-35.83,54.22-1.31,2.33-3.64,6-5.18,8.14a83.66,83.66,0,0,0-5.87,10.38c-2.82,5.95-3,7-2.75,12.69.39,7.79,2.82,11.85,9.8,16.35,10.5,6.77,1,6.24,111.77,6.24h98.84l8.57-9.24c6.62-7.13,9.23-10.67,11.48-15.54a122.53,122.53,0,0,0,8.15-26.7c1.25-7.16.47-26.36-1.26-31.26a130.19,130.19,0,0,0-16.16-37.56c-13.57-21.19-32.91-38-60.86-53-5-2.65-17.63-8.76-17.43-9,.61-.61,19.48,7.27,28.78,11.91,23,11.45,42.75,27.84,55.87,46.34,9.73,13.71,17.8,29.32,21.78,45,2.22,8.75,2.49,16.37,2.46,25.9,0,19-4,31.52-13.33,49.66-6.52,12.73-8,14.36-17.9,19.57l-11,4-97.52.61c-99.54.62-99.82,0-109.52-1.88-20.76-4-29.27-8.95-34.69-20.17-2.69-5.57-3.29-16.38-1.34-24.15,4.46-17.79,35.05-65.19,77.84-120.62,8.15-10.55,15.21-19.91,15.68-20.8,2.26-4.22,0-7-6.43-8-4.49-.67-27.36,2.89-37.25,5.8-24.2,7.09-33.54,10.71-45.62,17.66-18.18,10.45-33.09,23.29-43.44,37.41-11,15.06-15.42,24.53-19.6,42.3-2.46,10.51-1.89,26.92,1.35,38.59,6.75,24.31,21.09,43.22,45.93,60.53a70.67,70.67,0,0,1,7,5.22c0,.69-3,.18-7.61-1.28Z" transform="translate(-181 -302.23)"/></g><g id="g3066"><path id="path3992" class="cls-51" d="M386.94,530.33c-6.86-2.18-10.63-4.33-19.06-10.88C349.35,505.07,336,486.86,330,468c-3.49-11.14-4.29-18.43-3.77-34.56.41-12.37.81-15.72,2.71-22.15,4.72-16,11.26-28.22,22.2-41.36,24.78-29.76,71.08-52.22,118.21-57.34,13.05-1.41,37.44-1.54,41.19-.2s7.89,5.83,9.19,10.16c.85,2.87.74,3.71-.93,7a45.65,45.65,0,0,1-4.32,6.71c-1.33,1.64-4.8,6.13-7.7,10s-9.7,12.42-15.09,19.06-14.17,18.17-19.51,25.63c-9.88,13.8-31.52,46.53-35.84,54.21-1.31,2.33-3.64,6-5.18,8.15a81.56,81.56,0,0,0-5.86,10.37c-2.83,6-3,7-2.76,12.69.4,7.79,2.83,11.85,9.8,16.35,10.51,6.77,1,6.24,111.77,6.24H643l8.57-9.24c6.61-7.13,9.23-10.67,11.47-15.54a122.55,122.55,0,0,0,8.16-26.7c1.24-7.16.47-26.36-1.27-31.26-3.26-13.27-10.34-25.08-17.46-36.39-13.57-21.2-31.6-35-59.55-50-5-2.65-29.51-15.83-17.43-13.14.6-.61,19.47,7.27,28.78,11.91,23,11.45,42.74,27.84,55.87,46.34,9.73,13.71,17.8,29.32,21.78,45.05,2.21,8.75,2.48,16.36,2.46,25.89-.06,19-4,31.52-13.33,49.67-6.53,12.73-8,14.36-17.91,19.56l-10.95,4-97.53.6c-99.54.62-99.82,0-109.52-1.88-20.76-4-29.26-8.95-34.68-20.17-2.69-5.57-3.3-16.38-1.35-24.15,4.46-17.79,35.05-65.19,77.85-120.61,8.15-10.56,15.2-19.92,15.68-20.8,2.25-4.22,0-7-6.44-8-4.48-.66-27.35,2.9-37.25,5.8-24.19,7.1-33.53,10.71-45.61,17.66C385.16,358,370.25,370.86,359.9,385c-11,15.06-15.43,24.53-19.6,42.3-2.47,10.51-1.9,26.92,1.34,38.59,6.76,24.32,21.1,43.22,45.93,60.53a70.12,70.12,0,0,1,7,5.22c0,.69-3,.18-7.61-1.28Z" transform="translate(-181 -302.23)"/><path id="path3068" class="cls-51" d="M386.94,530.33c-6.86-2.18-10.63-4.33-19.06-10.88C349.35,505.07,336,486.86,330,468c-3.49-11.14-4.29-18.43-3.77-34.56.41-12.37.81-15.72,2.71-22.15,4.72-16,11.26-28.22,22.2-41.36,24.78-29.76,71.08-52.22,118.21-57.34,13.05-1.41,37.44-1.54,41.19-.2s7.89,5.83,9.19,10.16c.85,2.87.74,3.71-.93,7a45.65,45.65,0,0,1-4.32,6.71c-1.33,1.64-4.8,6.13-7.7,10s-9.7,12.42-15.09,19.06-14.17,18.17-19.51,25.63c-9.88,13.8-31.52,46.53-35.84,54.21-1.31,2.33-3.64,6-5.18,8.15a81.56,81.56,0,0,0-5.86,10.37c-2.83,6-3,7-2.76,12.69.4,7.79,2.83,11.85,9.8,16.35,10.51,6.77,1,6.24,111.77,6.24H643l8.57-9.24c6.61-7.13,9.23-10.67,11.47-15.54a122.55,122.55,0,0,0,8.16-26.7c1.24-7.16.47-26.36-1.27-31.26a129.65,129.65,0,0,0-16.16-37.56c-13.57-21.19-32.9-38-60.85-53-5-2.66-17.63-8.77-17.43-9,.6-.61,19.47,7.27,28.78,11.91,23,11.45,42.74,27.84,55.87,46.34,9.73,13.71,17.8,29.32,21.78,45.05,2.21,8.75,2.48,16.36,2.46,25.89-.06,19-4,31.52-13.33,49.67-6.53,12.73-8,14.36-17.91,19.56l-10.95,4-97.53.6c-99.54.62-99.82,0-109.52-1.88-20.76-4-29.26-8.95-34.68-20.17-2.69-5.57-3.3-16.38-1.35-24.15,4.46-17.79,35.05-65.19,77.85-120.61,8.15-10.56,15.2-19.92,15.68-20.8,2.25-4.22,0-7-6.44-8-4.48-.66-27.35,2.9-37.25,5.8-24.19,7.1-33.53,10.71-45.61,17.66C385.16,358,370.25,370.86,359.9,385c-11,15.06-15.43,24.53-19.6,42.3-2.47,10.51-1.9,26.92,1.34,38.59,6.76,24.32,21.1,43.22,45.93,60.53a70.12,70.12,0,0,1,7,5.22c0,.69-3,.18-7.61-1.28Z" transform="translate(-181 -302.23)"/></g><g class="cls-52"><path id="path3305-2" data-name="path3305" class="cls-53" d="M325.79,433.28c.4-12.38.81-15.72,2.7-22.16,4.72-16,11.26-28.21,22.2-41.35,24.79-29.77,71.09-52.22,118.22-57.34,13-1.41,37.43-1.54,41.18-.21s7.89,5.84,9.19,10.17c.86,2.87.75,3.71-.92,7a46.49,46.49,0,0,1-4.32,6.71c-1.33,1.64-4.8,6.12-7.71,10s-9.7,12.42-15.09,19.06-14.17,18.17-19.51,25.62c-9.88,13.8-31.52,46.54-35.83,54.22-1.31,2.33-3.64,6-5.18,8.14a83.66,83.66,0,0,0-5.87,10.38c-2.82,5.95-3,7-2.75,12.69.39,7.79,2.82,11.85,9.8,16.35,10.5,6.77,1,6.24,111.77,6.24h98.84l8.57-9.24c6.62-7.13,9.23-10.67,11.48-15.54a122.53,122.53,0,0,0,8.15-26.7c1.25-7.16.47-26.36-1.26-31.26-3.27-13.27-10.64-24.64-17.77-35.95-13.57-21.2-32.9-38-60.85-53-5-2.65-16-10.37-15.83-10.57.61-.61,19.48,7.27,28.78,11.91,23,11.45,42.75,27.84,55.87,46.34,9.73,13.71,17.8,29.32,21.78,45,2.22,8.75,2.49,16.37,2.46,25.9,0,19-4,31.52-13.33,49.67-6.52,12.72-8,14.35-17.9,19.56l-11,4-97.52.61c-99.54.62-99.82,0-109.52-1.88-20.76-4-29.27-8.95-34.69-20.17-2.69-5.57-3.29-16.38-1.34-24.15,4.46-17.79,35.05-65.19,77.84-120.62,8.15-10.55,15.21-19.91,15.68-20.8,2.26-4.22,0-7-6.43-8-4.49-.67-27.36,2.89-37.25,5.8-24.2,7.09-33.54,10.71-45.62,17.66-18.18,10.45-33.09,23.29-43.44,37.41-11,15.06-15.42,24.53-19.6,42.3-2.46,10.51-1.89,26.92,1.35,38.59-14.07-11.76-15.67-22.18-15.37-32.41Z" transform="translate(-181 -302.23)"/></g><g class="cls-54"><path id="path3992-7-2" data-name="path3992-7" class="cls-55" d="M329.55,467.83c-3.49-11.13-4.28-18.42-3.76-34.55.4-12.38.81-15.72,2.7-22.16,4.72-16,11.26-28.21,22.2-41.35,24.79-29.77,71.09-52.22,118.22-57.34,13-1.41,37.43-1.54,41.18-.21s7.89,5.84,9.19,10.17c.86,2.87.75,3.71-.92,7a46.49,46.49,0,0,1-4.32,6.71c-1.33,1.64-4.8,6.12-7.71,10s-9.7,12.42-15.09,19.06-14.17,18.17-19.51,25.62c-9.88,13.8-31.52,46.54-35.83,54.22-1.31,2.33-3.64,6-5.18,8.14a83.66,83.66,0,0,0-5.87,10.38c-2.82,5.95-3,7-2.75,12.69.39,7.79,2.82,11.85,9.8,16.35,10.5,6.77,1,6.24,111.77,6.24h98.84l8.57-9.24c6.62-7.13,9.23-10.67,11.48-15.54a122.53,122.53,0,0,0,8.15-26.7c1.25-7.16.47-26.36-1.26-31.26a130.19,130.19,0,0,0-16.16-37.56c-13.57-21.19-32.91-38-60.86-53-5-2.65-17.63-8.76-17.43-9,.61-.61,19.48,7.27,28.78,11.91,23,11.45,42.75,27.84,55.87,46.34,9.73,13.71,17.8,29.32,21.78,45,2.22,8.75,2.49,16.37,2.46,25.9,0,19-4,31.52-13.33,49.67-6.52,12.72-8,14.35-17.9,19.56l-11,4-97.52.61c-99.54.62-99.82,0-109.52-1.88-20.76-4-29.27-8.95-34.69-20.17-2.69-5.57-3.29-16.38-1.34-24.15,4.46-17.79,35.05-65.19,77.84-120.62,8.15-10.55,15.21-19.91,15.68-20.8,2.26-4.22,0-7-6.43-8-4.49-.67-27.36,2.89-37.25,5.8-24.2,7.09-33.54,10.71-45.62,17.66-18.18,10.45-33.09,23.29-43.44,37.41-11,15.06-15.42,24.53-19.6,42.3-2.46,10.51-1.89,26.92,1.35,38.59-4,2.31,6.59,18.39-11.61,2.14Z" transform="translate(-181 -302.23)"/></g><g class="cls-56"><path id="path3274-2" data-name="path3274" class="cls-57" d="M330.48,466.9c-3.49-11.13-4.28-18.42-3.76-34.55.4-12.38.81-15.72,2.7-22.16,4.72-16,11.26-28.21,22.2-41.35,24.79-29.77,71.09-52.22,118.22-57.34,13.05-1.41,37.43-1.54,41.18-.21s7.89,5.84,9.19,10.17c.86,2.87.75,3.71-.92,7a46.49,46.49,0,0,1-4.32,6.71c-1.33,1.64-4.8,6.12-7.71,10s-9.7,12.42-15.09,19.06S478,382.36,472.66,389.81c-9.88,13.8-31.52,46.54-35.83,54.22-1.31,2.33-3.64,6-5.18,8.14a83.66,83.66,0,0,0-5.87,10.38c-2.82,5.95-3,7-2.75,12.69.39,7.79,2.82,11.85,9.8,16.34,10.5,6.78,1,6.24,111.77,6.24h98.84l8.57-9.23c6.62-7.13,9.23-10.67,11.48-15.54a122.53,122.53,0,0,0,8.15-26.7c1.25-7.16.47-26.36-1.26-31.26-3.27-13.27-10.64-24.64-17.77-35.95-13.57-21.2-32.9-38-60.85-53-5-2.65-16-10.37-15.83-10.57.61-.61,19.48,7.27,28.78,11.91,23,11.45,42.75,27.84,55.87,46.34,9.73,13.71,17.8,29.32,21.78,45,2.22,8.75,2.49,16.37,2.46,25.9-.05,19-4,31.52-13.33,49.66-6.52,12.73-8,14.36-17.9,19.57l-11,4-97.52.61c-99.54.62-99.82,0-109.52-1.88-20.76-4-29.27-9-34.69-20.17-2.69-5.57-3.29-16.38-1.34-24.15,4.46-17.79,35.05-65.19,77.85-120.62,8.14-10.55,15.2-19.91,15.67-20.8,2.26-4.22,0-7-6.43-8-4.49-.67-27.36,2.89-37.25,5.8-24.2,7.09-33.54,10.71-45.62,17.66-18.18,10.45-33.09,23.29-43.44,37.41-11,15.06-15.42,24.53-19.6,42.3-2.46,10.51-1.89,26.92,1.35,38.59-3.95,2.31-3.09,1.38-11.6,2.14Z" transform="translate(-181 -302.23)"/></g><g id="g3066-5-8-6-6" class="cls-58"><g class="cls-59"><path id="path3068-2-3-6-4-2" data-name="path3068-2-3-6-4" class="cls-60" d="M470.57,313.19c12.28-1.35,35.22-1.47,38.75-.19s7.42,5.59,8.64,9.74c.81,2.75.7,3.56-.87,6.7a43.69,43.69,0,0,1-4.06,6.43c-1.26,1.57-4.52,5.87-7.25,9.55-19.79,19.91-16.06,8.6-13.34-13.57,2.12-4.05,0-6.72-6.06-7.64-7.71-6.1-.35-5.08-15.81-11Z" transform="translate(-181 -302.23)"/></g></g><g id="g3066-5-8-6"><g class="cls-61"><path id="path3068-2-3-6-2" data-name="path3068-2-3-6" class="cls-62" d="M486,370.29c-5.07,6.37-13.33,17.42-18.35,24.56-9.3,13.23-29.66,44.6-33.72,52-1.23,2.23-3.42,5.74-4.87,7.8a80.4,80.4,0,0,0-5.52,9.94c-2.66,5.71-2.86,6.68-2.59,12.17.37,7.47,2.66,11.35,9.22,15.66,9.88,6.49.9,6,105.15,6,13.56,6,119.34,16.08.48,19.9-93.65.59-93.91,0-103-1.8-19.53-3.84-27.53-8.58-32.63-19.34-2.53-5.33-3.1-15.69-1.26-23.14C422,393.66,497,353.16,486,370.29Z" transform="translate(-181 -302.23)"/></g></g><path id="path3151" class="cls-63" d="M463.78,482.62c-4.21-5.91-4.33-12.85-.36-21.87,7-15.86,46.45-71.08,76.26-106.66,17.2-20.53,24.14-30.3,24.14-34,0-1.62-1-3.59-3.07-5.83l-5.41-4.89,4.84,1.5c3,.93,11.59,3.79,14.15,5.47,4.21,2.75,3.48,10.43-.82,17.91-2,3.57-10.18,14.09-17.29,22.36-19.42,22.61-42.38,53.58-63.75,86-11.35,17.21-15,24.53-13.76,27.73.64,1.66-10.14,14.21-12.16,14.17a4.46,4.46,0,0,1-2.77-1.9Z" transform="translate(-181 -302.23)"/><path id="path3120" class="cls-64" d="M644.91,488.38c-1.82-2-6.34-11.48-6.34-13,0-.67,1.84-.67,2.6-1.29,2.33-1.88,3.94-5.69,6.23-14.7,5.35-21.08,3.12-42-6.66-62.29-12-25-37-46.41-64.79-55.54-3.93-1.29-5.17-1.75-6-2.69-1.43-1.62-1.24-2.23,1.09-7.34,1.74-3.8,2.14-5.8,3.43-6,1-.15,6,1.82,13.28,5.4,35.91,17.52,59.47,39.65,71.33,67,6.21,14.32,7.56,20,8.1,34,.67,17.39-2.09,30.19-9.76,45.23-6.19,12.14-9.49,14.58-12.51,11.24Z" transform="translate(-181 -302.23)"/><path id="path3025" class="cls-65" d="M474.41,489.35C470,488.8,466,486,466,484.28s11.26-14.65,12.67-14.65c.47,0,.72,1.84,2.23,2.61,2.5,1.27,10.27,1.44,81.56,1.75l78.8.34,3.4,6.16c2.06,3.73,3.8,7.33,3.46,8.18-.51,1.3-48.48,2.08-126.73,2-46.56-.07-45.54-1.1-47-1.28Z" transform="translate(-181 -302.23)"/><g class="cls-66"><path id="path4184-2" data-name="path4184" class="cls-67" d="M474.41,489.35C470,488.8,466,486,466,484.28s11.26-14.65,12.67-14.65c.47,0,.72,1.84,2.23,2.61,2.5,1.27,10.27,1.44,81.56,1.75l78.8.34,3.4,6.16c2.06,3.73,3.8,7.33,3.46,8.18-.51,1.3-48.48,2.08-126.73,2-46.56-.07-45.54-1.1-47-1.28Z" transform="translate(-181 -302.23)"/></g><g class="cls-68"><path id="path3069-2" data-name="path3069" class="cls-69" d="M474.51,564c-81.89-7.15-147.38-55.14-157.11-115.15-6.08-37.5,10-74.09,45.49-103.46,12.21-10.1,15.42-12.18,31.14-20.14,29.38-14.88,57.92-21.67,95.3-22.67,20.12-.54,34.72.37,51.23,3.19,14.37,2.46,16.09,3.07,20.13,7.11,2.9,2.9,3.62,4.21,3.62,6.62,0,3.67-4,9.28-25.38,35.37-25.37,31-41,52-61.19,82.34C461,462.42,458.65,468,461.28,477.06c1.94,6.68,8,9.77,14,10.91,7.73,1.47,16.43,1.12,75,1,30.76-.05,96,.09,98-.06a8.47,8.47,0,0,0,5.93-2.64c6.05-7.83,8.42-11.1.42,3.12-3.42,6.08-8.64,10.79-14.38,12-6.66,1.38-181.79.7-191.42-.75-8.41-1.26-13.28-3.12-19.8-7.54-4.09-2.78-5.67-4.52-7.49-8.24-2-4.18-2.24-5.34-1.78-10.26.57-6.18,3.15-12.48,8-19.7,1.77-2.61,4.51-7,6.08-9.83s8.24-13.28,14.81-23.3c17.46-26.58,35.23-50.79,47.88-65.22,8-9.09,19.45-24.81,20.27-27.75,1.61-5.71-2.88-13.42-9.08-15.62-4.23-1.5-26.71-1.18-40.25.58-74.35,9.62-130.45,52.49-140,106.92-1.61,9.25-1.62,27.62,0,36.78,4.43,25.27,20.62,48.73,46.25,67,9.34,6.66,29.78,17.14,41.88,21.47,54.91,19.66,124.49,16.53,176.78-8,12.57-5.89,18-9.54,25.8-17.48l6.88-7L637,513c11.33-.54,17.61,0,16.78,1.39s-16.75,7.48-23.15,9.75c-3.61,1.28-7,3.6-12.09,6.81-39.21,24.65-93.66,37.48-144,33.09Z" transform="translate(-181 -302.23)"/></g><g class="cls-70"><path id="path3314-2" data-name="path3314" class="cls-71" d="M475.44,563.88c-81.89-7.15-147.37-55.14-157.11-115.15-6.08-37.5,10-74.09,45.49-103.46,12.21-10.1,15.43-12.18,31.14-20.14,29.39-14.88,57.92-21.67,95.31-22.67-12.25,6-5.58,10.48-21.86,11.17-74.35,9.62-130.46,52.49-140,106.92-1.62,9.25-1.63,27.62,0,36.77,4.43,25.28,20.62,48.74,46.25,67,9.34,6.66,29.78,17.14,41.88,21.47,54.91,19.66,124.49,16.53,176.78-8,12.57-5.89,18-9.54,25.8-17.48l6.88-7,11.88-.57c11.34-.54,17.61,0,16.78,1.39s-16.75,7.48-23.15,9.75c-3.61,1.28-7,3.6-12.09,6.81-39.21,24.65-93.66,37.48-144,33.09Z" transform="translate(-181 -302.23)"/></g><path id="path3116" class="cls-72" d="M474.88,564C393,556.83,329.43,512.05,319.7,452c-6.08-37.5,10-73.45,45.49-102.82C377.4,339.12,381,337,395.77,328.41c28.45-16.59,56.55-24.85,93.94-25.85,20.12-.54,34.72.37,51.22,3.19,14.37,2.46,16.09,3.07,20.13,7.11,2.9,2.9,3.62,4.21,3.62,6.62,0,3.67-4,9.28-25.38,35.37-25.37,31-40.95,52-61.18,82.34C461.35,462.37,459,468,461.65,477c1.94,6.68,8,9.77,14,10.91,7.73,1.47,16.43,1.12,75,1,30.76-.05,96,.09,98-.06a8.44,8.44,0,0,0,5.92-2.64c6.05-7.83,8.42-11.1.43,3.11-3.43,6.09-8.64,10.8-14.39,12-6.66,1.38-181.78.7-191.41-.75-8.41-1.26-13.29-3.12-19.81-7.55-4.08-2.77-5.66-4.51-7.48-8.23-2.05-4.18-2.25-5.34-1.79-10.26.58-6.18,3.15-12.49,8-19.7,1.77-2.61,4.5-7,6.07-9.83s8.24-13.28,14.82-23.3c17.45-26.58,35.23-50.79,47.88-65.23,8-9.08,19.44-24.8,20.27-27.74,1.6-5.71-2.89-13.42-9.09-15.62-4.23-1.5-26.71-1.18-40.24.58-74.35,9.62-130.46,52.49-140,106.92-1.62,9.25-1.63,27.62,0,36.77,4.42,25.28,20.61,48.74,46.24,67,9.34,6.66,29.78,17.14,41.89,21.47,54.9,19.66,124.48,16.53,176.77-7.95,12.58-5.89,18-9.54,25.8-17.48l6.88-7,11.88-.57c11.34-.54,17.61,0,16.78,1.39s-16.75,7.48-23.15,9.75c-3.61,1.28-7,3.6-12.08,6.81-39.22,24.65-93.67,37.48-144,33.08Z" transform="translate(-181 -302.23)"/><g class="cls-73"><path id="path4198-2" data-name="path4198" class="cls-74" d="M474.51,564c-81.89-7.15-147.38-55.14-157.11-115.15-6.08-37.5,10-74.09,45.49-103.46,12.21-10.1,15.42-12.18,31.14-20.14,29.38-14.88,57.92-21.67,95.3-22.67-.78,8.15-13.67,11.2-21.86,11.17-74.35,9.62-130.45,52.49-140,106.92-1.61,9.25-1.62,27.62,0,36.78,4.43,25.27,20.62,48.73,46.25,67,9.34,6.66,29.78,17.14,41.88,21.47,54.91,19.66,124.49,16.53,176.78-8,12.57-5.89,18-9.54,25.8-17.48l6.88-7L637,513c11.33-.54,17.61,0,16.78,1.39s-16.75,7.48-23.15,9.75c-3.61,1.28-7,3.6-12.09,6.81-39.21,24.65-93.66,37.48-144,33.09Z" transform="translate(-181 -302.23)"/></g><g class="cls-70"><path id="path3116-1-2" data-name="path3116-1" class="cls-71" d="M475.44,563.88c-81.89-7.15-147.37-55.14-157.11-115.15-6.08-37.5,10-74.09,45.49-103.46,12.21-10.1,15.43-12.18,31.14-20.14,29.39-14.88,57.92-21.67,95.31-22.67-12.25,6-5.58,10.48-21.86,11.17-74.35,9.62-130.46,52.49-140,106.92-1.62,9.25-1.63,27.62,0,36.77,4.43,25.28,20.62,48.74,46.25,67,9.34,6.66,29.78,17.14,41.88,21.47,54.91,19.66,124.49,16.53,176.78-8,12.57-5.89,18-9.54,25.8-17.48l6.88-7,11.88-.57c11.34-.54,17.61,0,16.78,1.39s-16.75,7.48-23.15,9.75c-3.61,1.28-7,3.6-12.09,6.81-39.21,24.65-93.66,37.48-144,33.09Z" transform="translate(-181 -302.23)"/></g><g class="cls-75"><path id="path4500-2" data-name="path4500" class="cls-76" d="M483.92,493c-6.73-.16-19.23-10-18.3-9.18,7.05,6,36.69,5.45,94.67,5.3l88-.21,2.24-2.15c1.23-1.18,4-5.85,6.16-10.37,12.76-26.84,12.81-54,.13-80.52-5.15-10.76-11.17-19.25-20.73-29.24-13.86-14.48-26.93-24.31-47.86-33.55-14.85-6.55-15.28-5.1-14.67-9.22a18.41,18.41,0,0,0-1-4c-1.95-7-1-5.44,16.57,3.77C612.79,336,625.57,344.46,640.47,360c32.92,34.3,41.11,78.56,21.89,118.33-3.68,7.6-9,12.8-14.82,14.6-2.61.8-18,.86-79.29.79-44,0-49.83.11-84.33-.72Z" transform="translate(-181 -302.23)"/></g><path id="path3155" class="cls-77" d="M483.92,490.73c-11.72-.16-22.29-9.74-21.36-9,7.05,5.91,39.75,5.28,97.73,5.14l88-.22,2.24-2.12c1.23-1.16,4-5.77,6.16-10.24,12.76-26.48,12.81-53.33.13-79.46-5.15-10.62-11.17-19-20.73-28.86-13.86-14.29-26.93-24-47.86-33.11-14.85-6.47-15.28-5-14.67-9.11a18,18,0,0,0-1-3.89c-1.95-6.88-.14-1.78,17.48,7.3,23.68,12.21,33.73,18.74,48.63,34.06,32.92,33.85,42.93,75.74,23.71,115-3.68,7.51-9,12.63-14.82,14.41-2.61.79-18,.85-79.29.78-44-.05-49.83-.24-84.33-.71Z" transform="translate(-181 -302.23)"/><g class="cls-78"><path id="path3284-2" data-name="path3284" class="cls-79" d="M656.81,395.86c-5.15-10.76-11.17-19.25-20.73-29.24-13.86-14.48-26.93-24.31-47.86-33.55-14.85-6.55-15.28-5.1-14.67-9.22a18.41,18.41,0,0,0-1-4c-1.95-7-2.18-3.17,15.44,6,23.67,12.37,37.59,18.52,52.49,34.05,12.72,17.32,4.29,8.07,16.34,35.87Z" transform="translate(-181 -302.23)"/></g><g class="cls-80"><path id="path3300-2" data-name="path3300" class="cls-81" d="M619.14,520.39l6.88-7,11.88-.57c11.34-.54,17.61,0,16.78,1.39-8,9-43.23,15.4-35.54,6.16Z" transform="translate(-181 -302.23)"/></g><g class="cls-82"><path id="path3287-2" data-name="path3287" class="cls-83" d="M474.88,563.79C393,556.64,329.43,511.86,319.7,451.85c-6.08-37.5,10-73.45,45.49-102.81,12.21-10.11,15.82-12.22,30.58-20.82,28.45-16.59,56.55-24.84,93.94-25.85,20.12-.53,34.72.38,51.22,3.2,14.37,2.45,16.09,3.06,20.13,7.1,2.9,2.9,3.62,4.22,3.62,6.62,0,3.68-4,9.28-25.38,35.38-25.37,31-40.95,52-61.18,82.33-16.77,25.18-19.09,30.79-16.47,39.83,1.94,6.67,8,9.76,14,10.9,7.73,1.47,16.43,1.13,75,1,30.76-.05,96,.09,98-.05a8.49,8.49,0,0,0,5.92-2.65c6.05-7.82,8.42-11.09.43,3.12-3.43,6.08-8.64,10.8-14.39,12-6.66,1.38-181.78.7-191.41-.75-8.41-1.26-13.29-3.11-19.81-7.54-4.08-2.78-5.66-4.51-7.48-8.23-2.05-4.19-2.25-5.35-1.79-10.27.58-6.17,3.15-12.48,8-19.69,1.77-2.62,4.5-7,6.07-9.84s8.24-13.28,14.82-23.29c17.45-26.59,35.23-50.8,47.88-65.23,8-9.08,19.44-24.8,20.27-27.75,1.6-5.71-2.89-13.42-9.09-15.62-4.23-1.49-26.71-1.17-40.24.58-74.35,9.63-130.46,52.49-140,106.92-1.62,9.26-1.63,27.62,0,36.78,4.42,25.27,20.61,48.73,46.24,67,9.34,6.66,29.78,17.14,41.89,21.48,54.9,19.65,124.48,16.52,176.77-8,12.58-5.88,18-9.54,25.8-17.48l6.88-7,11.88-.57c11.34-.54,17.61,0,16.78,1.39s-16.75,7.48-23.15,9.75c-3.61,1.28-7,3.6-12.08,6.82-39.22,24.65-93.67,37.47-144,33.08Z" transform="translate(-181 -302.23)"/></g></svg>